<?xml version="1.0" encoding="utf-8"?>
<!-- Generator: Adobe Illustrator 27.9.0, SVG Export Plug-In . SVG Version: 6.00 Build 0)  -->
<svg version="1.1" id="Layer_1" xmlns="http://www.w3.org/2000/svg" xmlns:xlink="http://www.w3.org/1999/xlink" x="0px" y="0px"
	 viewBox="0 0 2500 2500" style="enable-background:new 0 0 2500 2500;" xml:space="preserve">
<style type="text/css">
	.st0{fill:#F2E6DC;}
	.st1{fill:#FFFFFF;}
	.st2{fill:#363E44;}
	.st3{fill:#8B865C;}
	.st4{fill:#2D353A;}
	.st5{fill:#EFBC73;}
	.st6{fill:#E6D0BE;}
	.st7{fill:#D87355;}
	.st8{fill:#BC8271;}
	.st9{fill:#776E42;}
	.st10{fill:#D3BBA3;}
</style>
<g id="Illustration">
	<g id="Air_conditioning_1_">
		<circle class="st0" cx="1252.2" cy="1250" r="915"/>
		<g>
			<g>
				<path class="st1" d="M1018.7,746.3h996.9c49,0,88.8-39.7,88.8-88.8V356.9H930v300.6C930,706.5,969.7,746.3,1018.7,746.3z"/>
			</g>
			<polygon class="st2" points="1086.6,716 1993.4,716 2053.8,532.8 1026.2,532.8 			"/>
			<g>
				<path class="st2" d="M2042.7,754.2h-996.9c-50.2,0-91-40.8-91-91V362.6c0-1.2,1-2.2,2.2-2.2h1174.4c1.2,0,2.2,1,2.2,2.2v300.6
					C2133.7,713.4,2092.9,754.2,2042.7,754.2z M959.3,364.8v298.4c0,47.7,38.8,86.6,86.6,86.6h996.9c47.7,0,86.6-38.8,86.6-86.6
					V364.8H959.3z"/>
			</g>
			<g>
				<g>
					<path class="st2" d="M1085,493.6c-14.4,0-28.2-8.6-34-22.7l0,0c-3.8-9.1-3.8-19.1,0-28.1c3.8-9.1,10.8-16.1,19.9-19.9
						c18.7-7.8,40.3,1.2,48,19.9c3.8,9.1,3.8,19.1,0,28.1c-3.8,9.1-10.8,16.1-19.9,19.9C1094.5,492.7,1089.7,493.6,1085,493.6z
						 M1055.1,469.2c6.8,16.5,25.8,24.3,42.3,17.5c8-3.3,14.2-9.5,17.5-17.5c3.3-8,3.3-16.8,0-24.8c-6.8-16.5-25.8-24.3-42.3-17.5
						c-8,3.3-14.2,9.5-17.5,17.5C1051.8,452.5,1051.8,461.3,1055.1,469.2L1055.1,469.2z"/>
					
						<ellipse transform="matrix(1 -8.599683e-03 8.599683e-03 1 -3.8889 9.3479)" class="st3" cx="1085" cy="456.9" rx="19.8" ry="19.8"/>
				</g>
				<g>
					<path class="st2" d="M1179.7,476c-8.3,0-16.2-4.9-19.5-13c-2.2-5.2-2.2-10.9,0-16.2c2.2-5.2,6.2-9.3,11.4-11.4
						c10.8-4.5,23.1,0.7,27.6,11.4c2.2,5.2,2.2,10.9,0,16.2c-2.2,5.2-6.2,9.3-11.4,11.4C1185.1,475.4,1182.3,476,1179.7,476z
						 M1179.6,438.2c-2.1,0-4.3,0.4-6.4,1.3c-4.1,1.7-7.3,4.9-9,9c-1.7,4.1-1.7,8.7,0,12.8l0,0c3.5,8.5,13.3,12.6,21.8,9
						c4.1-1.7,7.3-4.9,9-9c1.7-4.1,1.7-8.7,0-12.8C1192.4,442.1,1186.2,438.2,1179.6,438.2z"/>
				</g>
			</g>
			<path class="st2" d="M2040.3,479.5h-249.4c-1.2,0-2.2-1-2.2-2.2v-36.8c0-1.2,1-2.2,2.2-2.2h249.4c1.2,0,2.2,1,2.2,2.2v36.8
				C2042.5,478.5,2041.5,479.5,2040.3,479.5z M1793.1,475.1h245v-32.4h-245V475.1z"/>
			<rect x="1104.8" y="593.8" class="st1" width="872.4" height="30.6"/>
			<rect x="1104.8" y="647.7" class="st1" width="872.4" height="30.6"/>
		</g>
		<g>
			<path class="st1" d="M1876.9,846.2c-0.2-1.7,1.1-3.1,2.7-3.3c12.5-1.2,20.6-5.4,26.8-9.4c1.4-0.9,3.3-0.5,4.2,0.9
				c0.9,1.4,0.5,3.3-0.9,4.2c-6.9,4.4-15.7,9-29.5,10.3c-0.1,0-0.2,0-0.3,0C1878.3,848.9,1877,847.8,1876.9,846.2z M1515.4,848.7
				c-12.9-2.1-21.6-7.5-28.7-12.3c-1.4-0.9-1.7-2.8-0.8-4.2c0.9-1.4,2.8-1.7,4.2-0.8c6.8,4.7,14.5,9.4,26.2,11.4
				c1.6,0.3,2.8,1.8,2.5,3.5c-0.2,1.5-1.5,2.5-3,2.5C1515.7,848.7,1515.6,848.7,1515.4,848.7z M1709.9,846c-0.3-1.6,0.8-3.2,2.5-3.5
				c11.6-2,19.3-6.8,26.1-11.5c1.4-1,3.3-0.6,4.2,0.8c0.9,1.4,0.6,3.3-0.8,4.2c-7.4,5.1-15.8,10.4-28.6,12.5c-0.2,0-0.3,0-0.5,0
				C1711.4,848.5,1710.2,847.4,1709.9,846z M1542.9,845.3c-0.4-1.6,0.6-3.3,2.2-3.7c10.2-2.6,17.1-7.5,24.4-12.6l1.2-0.8
				c1.4-1,3.2-0.6,4.2,0.7c1,1.4,0.6,3.3-0.7,4.2l-1.2,0.8c-7.4,5.2-15.1,10.6-26.4,13.5c-0.3,0.1-0.5,0.1-0.8,0.1
				C1544.5,847.6,1543.3,846.7,1542.9,845.3z M1682.2,847.4c-11.4-2.9-19.2-8.3-26.7-13.5l-0.9-0.6c-1.4-1-1.7-2.8-0.7-4.2
				c1-1.4,2.8-1.7,4.2-0.7l0.9,0.6c7.4,5.2,14.3,10.1,24.7,12.6c1.6,0.4,2.6,2,2.2,3.7c-0.3,1.4-1.6,2.3-2.9,2.3
				C1682.7,847.5,1682.5,847.5,1682.2,847.4z M1375.8,844.3c-0.6-1.6,0.3-3.3,1.8-3.9c7.8-2.8,13.6-6.9,19.8-11.2
				c1.8-1.3,3.6-2.5,5.5-3.8c1.4-0.9,3.3-0.6,4.2,0.8c0.9,1.4,0.6,3.3-0.8,4.2c-1.8,1.2-3.6,2.4-5.3,3.7c-6.2,4.4-12.7,8.9-21.2,12
				c-0.3,0.1-0.7,0.2-1,0.2C1377.4,846.3,1376.3,845.5,1375.8,844.3z M1849.1,845.7c-8.7-3-15.3-7.6-21.6-12
				c-1.7-1.2-3.3-2.3-5.1-3.5c-1.4-0.9-1.8-2.8-0.8-4.2c0.9-1.4,2.8-1.8,4.2-0.8c1.8,1.2,3.5,2.4,5.2,3.6
				c6.2,4.4,12.1,8.5,20.1,11.3c1.6,0.5,2.4,2.3,1.9,3.8c-0.4,1.2-1.6,2-2.9,2C1849.8,845.9,1849.4,845.8,1849.1,845.7z
				 M2016.1,843.5c-6.4-2.9-11.6-6.5-16.6-10.1c-3-2.1-6-4.2-9.2-6.1c-1.4-0.9-1.9-2.7-1-4.1c0.9-1.4,2.7-1.9,4.1-1
				c3.4,2,6.5,4.2,9.6,6.4c5,3.5,9.8,6.9,15.6,9.5c1.5,0.7,2.2,2.5,1.5,4c-0.5,1.1-1.6,1.8-2.8,1.8
				C2017,843.8,2016.5,843.7,2016.1,843.5z M1930.9,821.4c-0.6-1.5,0.1-3.3,1.7-3.9c7.6-3.1,16-4.6,25.8-4.6c1.8,0,3.5,0,5.1,0.1
				c1.7,0.1,2.9,1.5,2.8,3.2c-0.1,1.7-1.6,2.9-3.2,2.8c-1.5-0.1-3.1-0.1-4.9-0.1c-8.9,0-16.5,1.4-23.4,4.1c-0.4,0.2-0.8,0.2-1.1,0.2
				C1932.5,823.3,1931.4,822.6,1930.9,821.4z M1461.4,822.2c-5.7-1.7-12-2.6-19.2-2.6c-3.3,0-6.5,0.2-9.4,0.6
				c-1.7,0.2-3.2-1-3.4-2.6s1-3.2,2.6-3.4c3.2-0.4,6.6-0.6,10.3-0.6c7.7,0,14.5,0.9,20.9,2.8c1.6,0.5,2.5,2.2,2,3.8
				c-0.4,1.3-1.6,2.1-2.9,2.1C1461.9,822.3,1461.6,822.2,1461.4,822.2z M1763.6,819.7c-0.5-1.6,0.4-3.3,2-3.8
				c6.2-1.9,13-2.8,20.7-2.8c3.7,0,7.1,0.2,10.4,0.6c1.7,0.2,2.8,1.7,2.6,3.4c-0.2,1.7-1.7,2.8-3.4,2.6c-3-0.4-6.2-0.6-9.7-0.6
				c0,0,0,0-0.1,0c-7,0-13.2,0.8-18.9,2.5c-0.3,0.1-0.6,0.1-0.9,0.1C1765.2,821.8,1764,821,1763.6,819.7z M1628.7,820.8
				c-4.5-0.9-9.2-1.4-14.5-1.4c-5.2,0-9.8,0.5-14.2,1.4c-1.6,0.3-3.2-0.7-3.6-2.3c-0.3-1.6,0.7-3.2,2.3-3.6c4.8-1,9.8-1.5,15.5-1.5
				c5.7,0,10.8,0.5,15.7,1.5c1.6,0.3,2.7,1.9,2.3,3.6c-0.3,1.4-1.6,2.4-3,2.4C1629.1,820.8,1628.9,820.8,1628.7,820.8z"/>
			<path class="st1" d="M1542.9,933.2c-0.2-1.7,1.1-3.1,2.7-3.3c12.5-1.2,20.6-5.4,26.8-9.4c1.4-0.9,3.3-0.5,4.2,0.9
				c0.9,1.4,0.5,3.3-0.9,4.2c-6.9,4.4-15.7,9-29.5,10.3c-0.1,0-0.2,0-0.3,0C1544.4,936,1543,934.8,1542.9,933.2z M1181.4,935.8
				c-12.9-2.1-21.6-7.5-28.7-12.3c-1.4-0.9-1.7-2.8-0.8-4.2c0.9-1.4,2.8-1.7,4.2-0.8c6.8,4.7,14.5,9.4,26.2,11.4
				c1.6,0.3,2.8,1.8,2.5,3.5c-0.2,1.5-1.5,2.5-3,2.5C1181.8,935.8,1181.6,935.8,1181.4,935.8z M1375.9,933c-0.3-1.6,0.8-3.2,2.5-3.5
				c11.6-2,19.3-6.8,26.1-11.5c1.4-1,3.3-0.6,4.2,0.8c0.9,1.4,0.6,3.3-0.8,4.2c-7.4,5.1-15.8,10.4-28.6,12.5c-0.2,0-0.3,0-0.5,0
				C1377.5,935.5,1376.2,934.5,1375.9,933z M1208.9,932.4c-0.4-1.6,0.6-3.3,2.2-3.7c10.2-2.6,17.1-7.5,24.4-12.6l1.2-0.8
				c1.4-1,3.2-0.6,4.2,0.7c1,1.4,0.6,3.3-0.7,4.2l-1.2,0.8c-7.4,5.2-15.1,10.6-26.4,13.5c-0.3,0.1-0.5,0.1-0.8,0.1
				C1210.5,934.6,1209.3,933.7,1208.9,932.4z M1348.2,934.5c-11.4-2.9-19.2-8.3-26.7-13.5l-0.9-0.6c-1.4-1-1.7-2.8-0.7-4.2
				c1-1.4,2.8-1.7,4.2-0.7l0.9,0.6c7.4,5.2,14.3,10.1,24.7,12.6c1.6,0.4,2.6,2,2.2,3.7c-0.3,1.4-1.6,2.3-2.9,2.3
				C1348.7,934.6,1348.5,934.5,1348.2,934.5z M1041.9,931.3c-0.6-1.6,0.3-3.3,1.8-3.9c7.8-2.8,13.6-6.9,19.8-11.2
				c1.8-1.3,3.6-2.5,5.5-3.8c1.4-0.9,3.3-0.6,4.2,0.8c0.9,1.4,0.6,3.3-0.8,4.2c-1.8,1.2-3.6,2.4-5.3,3.7c-6.2,4.4-12.7,8.9-21.2,12
				c-0.3,0.1-0.7,0.2-1,0.2C1043.5,933.3,1042.3,932.6,1041.9,931.3z M1515.1,932.8c-8.7-3-15.3-7.6-21.6-12
				c-1.7-1.2-3.3-2.3-5.1-3.5c-1.4-0.9-1.8-2.8-0.8-4.2c0.9-1.4,2.8-1.8,4.2-0.8c1.8,1.2,3.5,2.4,5.2,3.6
				c6.2,4.4,12.1,8.5,20.1,11.3c1.6,0.5,2.4,2.3,1.9,3.8c-0.4,1.2-1.6,2-2.9,2C1515.8,932.9,1515.5,932.9,1515.1,932.8z
				 M1682.2,930.6c-6.4-2.9-11.6-6.5-16.6-10.1c-3-2.1-6-4.2-9.2-6.1c-1.4-0.9-1.9-2.7-1-4.1c0.9-1.4,2.7-1.9,4.1-1
				c3.4,2,6.5,4.2,9.6,6.4c5,3.5,9.8,6.9,15.6,9.5c1.5,0.7,2.2,2.5,1.5,4c-0.5,1.1-1.6,1.8-2.8,1.8
				C1683,930.9,1682.6,930.8,1682.2,930.6z M1596.9,908.5c-0.6-1.5,0.1-3.3,1.7-3.9c7.6-3.1,16-4.6,25.8-4.6c1.8,0,3.5,0,5.1,0.1
				c1.7,0.1,2.9,1.5,2.8,3.2c-0.1,1.7-1.6,2.9-3.2,2.8c-1.5-0.1-3.1-0.1-4.9-0.1c-8.9,0-16.5,1.4-23.4,4.1c-0.4,0.2-0.8,0.2-1.1,0.2
				C1598.5,910.4,1597.4,909.7,1596.9,908.5z M1127.4,909.2c-5.7-1.7-12-2.6-19.2-2.6c-3.3,0-6.5,0.2-9.4,0.6
				c-1.7,0.2-3.2-1-3.4-2.6s1-3.2,2.6-3.4c3.2-0.4,6.6-0.6,10.3-0.6c7.7,0,14.5,0.9,20.9,2.8c1.6,0.5,2.5,2.2,2,3.8
				c-0.4,1.3-1.6,2.1-2.9,2.1C1128,909.3,1127.7,909.3,1127.4,909.2z M1429.6,906.7c-0.5-1.6,0.4-3.3,2-3.8c6.2-1.9,13-2.8,20.7-2.8
				c3.7,0,7.1,0.2,10.4,0.6c1.7,0.2,2.8,1.7,2.6,3.4c-0.2,1.7-1.7,2.8-3.4,2.6c-3-0.4-6.2-0.6-9.7-0.6c0,0,0,0-0.1,0
				c-7,0-13.2,0.8-18.9,2.5c-0.3,0.1-0.6,0.1-0.9,0.1C1431.2,908.9,1430,908,1429.6,906.7z M1294.8,907.8c-4.5-0.9-9.2-1.4-14.5-1.4
				c-5.2,0-9.8,0.5-14.2,1.4c-1.6,0.3-3.2-0.7-3.6-2.3c-0.3-1.6,0.7-3.2,2.3-3.6c4.8-1,9.8-1.5,15.5-1.5c5.7,0,10.8,0.5,15.7,1.5
				c1.6,0.3,2.7,1.9,2.3,3.6c-0.3,1.4-1.6,2.4-3,2.4C1295.2,907.9,1295,907.8,1294.8,907.8z"/>
		</g>
		<g>
			<rect x="427.3" y="1445.2" class="st4" width="975" height="712.4"/>
			<rect x="332.8" y="1445.5" class="st2" width="960.6" height="712.4"/>
			<g>
				<g>
					<ellipse class="st5" cx="670.1" cy="1799.8" rx="51.7" ry="51.7"/>
					<path class="st5" d="M620.3,1803.7c0,0-38.4,21.4-65.5,28c-31.5,7.6-58.6-36.4-93.7-9.4c-28.9,22.2-30.1,84.1,30,114.3
						c29.1,14.6,84.6-4.7,112.3-27.5c34.4-28.3,45.4-73,45.4-73L620.3,1803.7z"/>
					<path class="st5" d="M662.6,1754.3c0,0-19.7-39.3-25-66.7c-6.2-31.8,39-56.9,13.6-93.2c-20.9-29.9-82.6-33.9-115.5,24.8
						c-15.9,28.4,0.9,84.7,22.4,113.4c26.7,35.6,70.9,48.6,70.9,48.6L662.6,1754.3z"/>
					<path class="st5" d="M718.2,1803.2c0,0,36.7-24.1,63.3-32.6c30.8-9.9,61.1,32.1,94.2,2.6c27.3-24.3,24-86-38.1-111.8
						c-30.1-12.5-84,10.8-110,35.5c-32.2,30.7-40,76.1-40,76.1L718.2,1803.2z"/>
					<path class="st5" d="M674.1,1848.1c0,0,21.4,38.4,27.9,65.5c7.6,31.5-36.4,58.6-9.4,93.7c22.2,28.9,84.1,30.2,114.3-29.9
						c14.6-29.1-4.7-84.6-27.5-112.2c-28.3-34.4-73-45.4-73-45.4L674.1,1848.1z"/>
				</g>
				<g>
					<path class="st1" d="M667.8,2083.6c-159.6,0-289.5-126.4-289.5-281.8c0-155.4,129.9-281.8,289.5-281.8s289.5,126.4,289.5,281.8
						C957.2,1957.2,827.4,2083.6,667.8,2083.6z M667.8,1528.1c-155.1,0-281.3,122.8-281.3,273.6c0,150.9,126.2,273.6,281.3,273.6
						s281.3-122.8,281.3-273.6C949.1,1650.9,822.9,1528.1,667.8,1528.1z"/>
					<path class="st1" d="M800.6,1559H538.3c-2.3,0-4.1-1.8-4.1-4.1s1.8-4.1,4.1-4.1h262.3c2.3,0,4.1,1.8,4.1,4.1
						C804.7,1557.2,802.9,1559,800.6,1559z"/>
					<path class="st1" d="M858.2,1600.2H475.3c-2.3,0-4.1-1.8-4.1-4.1s1.8-4.1,4.1-4.1h382.9c2.3,0,4.1,1.8,4.1,4.1
						S860.4,1600.2,858.2,1600.2z"/>
					<path class="st1" d="M897.2,1641.4H436.7c-2.3,0-4.1-1.8-4.1-4.1s1.8-4.1,4.1-4.1h460.5c2.3,0,4.1,1.8,4.1,4.1
						S899.5,1641.4,897.2,1641.4z"/>
					<path class="st1" d="M923.1,1682.6H415.2c-2.3,0-4.1-1.8-4.1-4.1s1.8-4.1,4.1-4.1h507.9c2.3,0,4.1,1.8,4.1,4.1
						S925.3,1682.6,923.1,1682.6z"/>
					<path class="st1" d="M937.5,1723.7H395.1c-2.3,0-4.1-1.8-4.1-4.1s1.8-4.1,4.1-4.1h542.4c2.3,0,4.1,1.8,4.1,4.1
						S939.8,1723.7,937.5,1723.7z"/>
					<path class="st1" d="M948,1764.9H388.4c-2.3,0-4.1-1.8-4.1-4.1s1.8-4.1,4.1-4.1H948c2.3,0,4.1,1.8,4.1,4.1
						S950.2,1764.9,948,1764.9z"/>
					<path class="st1" d="M953.1,1806.1H384.9c-2.3,0-4.1-1.8-4.1-4.1s1.8-4.1,4.1-4.1h568.2c2.3,0,4.1,1.8,4.1,4.1
						S955.4,1806.1,953.1,1806.1z"/>
					<path class="st1" d="M948.8,1847.3H384.9c-2.3,0-4.1-1.8-4.1-4.1s1.8-4.1,4.1-4.1h563.9c2.3,0,4.1,1.8,4.1,4.1
						S951.1,1847.3,948.8,1847.3z"/>
					<path class="st1" d="M939.4,1888.5H397c-2.3,0-4.1-1.8-4.1-4.1s1.8-4.1,4.1-4.1h542.4c2.3,0,4.1,1.8,4.1,4.1
						S941.6,1888.5,939.4,1888.5z"/>
					<path class="st1" d="M922.1,1929.6H414.2c-2.3,0-4.1-1.8-4.1-4.1s1.8-4.1,4.1-4.1h507.9c2.3,0,4.1,1.8,4.1,4.1
						S924.4,1929.6,922.1,1929.6z"/>
					<path class="st1" d="M896.3,1970.8H440.1c-2.3,0-4.1-1.8-4.1-4.1s1.8-4.1,4.1-4.1h456.2c2.3,0,4.1,1.8,4.1,4.1
						S898.5,1970.8,896.3,1970.8z"/>
					<path class="st1" d="M858.4,2012H479.7c-2.3,0-4.1-1.8-4.1-4.1s1.8-4.1,4.1-4.1h378.6c2.3,0,4.1,1.8,4.1,4.1
						C862.4,2010.2,860.6,2012,858.4,2012z"/>
					<path class="st1" d="M798.1,2053.2H539.5c-2.3,0-4.1-1.8-4.1-4.1c0-2.3,1.8-4.1,4.1-4.1h258.6c2.3,0,4.1,1.8,4.1,4.1
						C802.2,2051.3,800.3,2053.2,798.1,2053.2z"/>
				</g>
			</g>
			<g>
				<g>
					<path class="st5" d="M1207.2,1847.5h-146.7c-8.5,0-15.5-7-15.5-15.5s7-15.5,15.5-15.5h146.7c8.5,0,15.5,7,15.5,15.5
						S1215.7,1847.5,1207.2,1847.5z"/>
					<path class="st5" d="M1207.2,1771.6h-146.7c-8.5,0-15.5-7-15.5-15.5s7-15.5,15.5-15.5h146.7c8.5,0,15.5,7,15.5,15.5
						S1215.7,1771.6,1207.2,1771.6z"/>
					<path class="st5" d="M1207.2,1923.4h-146.7c-8.5,0-15.5-7-15.5-15.5s7-15.5,15.5-15.5h146.7c8.5,0,15.5,7,15.5,15.5
						C1222.7,1916.4,1215.7,1923.4,1207.2,1923.4z"/>
					<path class="st2" d="M1207.2,1999.2h-146.7c-8.5,0-15.5-7-15.5-15.5s7-15.5,15.5-15.5h146.7c8.5,0,15.5,7,15.5,15.5
						S1215.7,1999.2,1207.2,1999.2z"/>
				</g>
				<g>
					<ellipse class="st5" cx="1108" cy="1613" rx="20.1" ry="20.1"/>
					<ellipse class="st5" cx="1187.5" cy="1613" rx="20.1" ry="20.1"/>
				</g>
			</g>
		</g>
		<g>
			<g>
				<path class="st1" d="M1893.8,1953.7L1893.8,1953.7c-46.2,0-83.7-37.5-83.7-83.7v-743.8c0-46.2,37.5-83.7,83.7-83.7h0
					c46.2,0,83.7,37.5,83.7,83.7v743.8C1977.5,1916.3,1940,1953.7,1893.8,1953.7z"/>
				<ellipse class="st1" cx="1893.8" cy="1924.6" rx="203.6" ry="203.6"/>
				<path class="st6" d="M1893.8,2130.4c-60.6,0-117.8-26.5-157-72.7c-0.8-0.9-0.7-2.3,0.3-3.1c0.9-0.8,2.3-0.7,3.1,0.3
					c38.4,45.2,94.4,71.2,153.7,71.2c111.1,0,201.4-90.3,201.4-201.4c0-49-17.8-96.3-50.2-133c-0.8-0.9-0.7-2.3,0.2-3.1
					c0.9-0.8,2.3-0.7,3.1,0.2c33.1,37.6,51.3,85.8,51.3,136C2099.6,2038.1,2007.3,2130.4,1893.8,2130.4z"/>
			</g>
			<g>
				<path class="st2" d="M1977.5,1165.4h-32.2c-1.2,0-2.2-1-2.2-2.2s1-2.2,2.2-2.2h32.2c1.2,0,2.2,1,2.2,2.2
					S1978.7,1165.4,1977.5,1165.4z"/>
				<path class="st2" d="M1977.5,1269.5h-32.2c-1.2,0-2.2-1-2.2-2.2c0-1.2,1-2.2,2.2-2.2h32.2c1.2,0,2.2,1,2.2,2.2
					C1979.7,1268.5,1978.7,1269.5,1977.5,1269.5z"/>
				<path class="st2" d="M1977.5,1373.7h-32.2c-1.2,0-2.2-1-2.2-2.2c0-1.2,1-2.2,2.2-2.2h32.2c1.2,0,2.2,1,2.2,2.2
					C1979.7,1372.7,1978.7,1373.7,1977.5,1373.7z"/>
				<path class="st2" d="M1977.5,1477.8h-32.2c-1.2,0-2.2-1-2.2-2.2c0-1.2,1-2.2,2.2-2.2h32.2c1.2,0,2.2,1,2.2,2.2
					C1979.7,1476.8,1978.7,1477.8,1977.5,1477.8z"/>
				<path class="st2" d="M1977.5,1581.9h-32.2c-1.2,0-2.2-1-2.2-2.2s1-2.2,2.2-2.2h32.2c1.2,0,2.2,1,2.2,2.2
					S1978.7,1581.9,1977.5,1581.9z"/>
				<path class="st2" d="M1977.5,1686.1h-32.2c-1.2,0-2.2-1-2.2-2.2c0-1.2,1-2.2,2.2-2.2h32.2c1.2,0,2.2,1,2.2,2.2
					C1979.7,1685.1,1978.7,1686.1,1977.5,1686.1z"/>
			</g>
			<g>
				<ellipse class="st7" cx="1893.8" cy="1924.6" rx="83.7" ry="83.7"/>
				<path class="st7" d="M1894.8,1933.5h-2c-8.5,0-15.4-6.9-15.4-15.4v-774.6c0-8.5,6.9-15.4,15.4-15.4h2c8.5,0,15.4,6.9,15.4,15.4
					v774.6C1910.2,1926.6,1903.3,1933.5,1894.8,1933.5z"/>
			</g>
		</g>
		<g>
			<g>
				<g>
					<path class="st8" d="M1113.6,1002.2c153.9,63.9,195.8,138.4,166.8,194.7c-16.8,32.7-107.8,52.9-234.3-36.8
						C1058.6,1108.9,1097.1,1063.8,1113.6,1002.2z"/>
					<path class="st8" d="M609,997.7c-57.3,61.2-262.8,257.6-195.6,325.7c55.6,56.4,249.7-142.7,310.4-200.1
						C685.5,1081.5,647.2,1039.6,609,997.7z"/>
					<path class="st1" d="M562.4,990.5c0,0,153.4-72.9,294.2-60.4s278.5,67.9,278.5,67.9l-55.6,167.7l14.1,278.3H597.1l30.7-264.2
						L562.4,990.5z"/>
				</g>
				<g>
					<path class="st8" d="M670,1542.2c22.3,31.7,37.1,38.4,42,34.7c8.3-6.2,0.3-41.1-26.5-91.5
						C679.8,1500.9,675.7,1526.8,670,1542.2z"/>
					<path class="st8" d="M525.8,1228.8C525.8,1228.9,525.8,1228.8,525.8,1228.8c80,130.5,139.2,221.6,156.3,250.4
						c1.8,3,5,8.3,7.1,16.1c7.9,28.8-11.5,45.2-17,79.3c-6.3,38.7,12.1,64,3.5,69.1c-6,3.6-15.6-4-28-25.4c0,0,0,0,0,0
						c7.5,17.3,16.7,41.3,7.1,45.4c-11.3,4.2-25.4-22.7-33.2-39.4c9.4,20.2,8.3,33.7,2.4,34.7c-9.3,1.5-20.2-12.4-31.6-39.6
						c0,0,0,0,0,0c2.6,20.9,0.1,26.4-5.3,26c-9.9-0.8-18.8-23.3-23.7-44.3c-5.4-23.7-1.4-44,1.4-56.8c0,0,0,0,0,0
						c-65.5-85.6-117.1-158.2-159.2-226.7C376.7,1270.4,465,1205,525.8,1228.8z"/>
					<path class="st2" d="M598.6,1346.8c-0.7,0-1.5-0.4-1.9-1l-9.7-15.6c-19-30.6-54.3-87.6-63-101.8c-0.6-1-0.3-2.4,0.7-3
						c1-0.6,2.4-0.3,3,0.7c8.7,14.2,44,71.2,63,101.8l9.7,15.6c0.6,1,0.3,2.4-0.7,3C599.4,1346.7,599,1346.8,598.6,1346.8z"/>
					<path class="st2" d="M676.7,1554.5c-0.2,0-0.5,0-0.7-0.1c-1.1-0.4-1.7-1.7-1.3-2.8c1.6-4.4,3.3-8.6,4.9-12.6
						c3.4-8.3,6.5-16.1,7.7-24.2c0.2-1.2,1.3-2,2.5-1.9c1.2,0.2,2,1.3,1.9,2.5c-1.3,8.6-4.5,16.7-8,25.3c-1.6,3.9-3.3,8-4.8,12.4
						C678.5,1554,677.6,1554.5,676.7,1554.5z"/>
					<path class="st2" d="M648.4,1619.6c-0.9,0-1.8-0.6-2.1-1.5c-2.3-6.7-3.7-13.6-4.1-20.6c-0.3-4.8-0.2-9.7,0.4-14.5
						c0.1-1.2,1.2-2.1,2.5-1.9c1.2,0.1,2.1,1.2,1.9,2.5c-0.5,4.6-0.7,9.2-0.4,13.7c0.4,6.6,1.7,13.2,3.9,19.5
						c0.4,1.2-0.2,2.4-1.4,2.8C648.9,1619.6,648.6,1619.6,648.4,1619.6z"/>
					<path class="st2" d="M623.7,1628.3c-0.9,0-1.8-0.6-2.1-1.5c-2.3-6.7-3.7-13.6-4.1-20.6c-0.3-4.8-0.2-9.7,0.4-14.5
						c0.1-1.2,1.3-2.1,2.5-1.9c1.2,0.1,2.1,1.2,1.9,2.5c-0.6,4.6-0.7,9.2-0.4,13.7c0.4,6.6,1.7,13.2,3.9,19.5
						c0.4,1.2-0.2,2.4-1.4,2.8C624.1,1628.2,623.9,1628.3,623.7,1628.3z"/>
					<path class="st2" d="M592.6,1621.2c-0.9,0-1.8-0.6-2.1-1.5c-2.3-6.7-3.7-13.6-4.1-20.6c-0.3-4.8-0.2-9.7,0.4-14.5
						c0.1-1.2,1.2-2.1,2.5-1.9c1.2,0.1,2.1,1.2,1.9,2.5c-0.5,4.6-0.7,9.2-0.4,13.7c0.4,6.6,1.7,13.2,3.9,19.5
						c0.4,1.2-0.2,2.4-1.4,2.8C593.1,1621.1,592.8,1621.2,592.6,1621.2z"/>
				</g>
				<g>
					<g>
						<g>
							<path class="st8" d="M1139,1191.6c72.4-162.9,130.1-275.8,158.5-349.5c12.7-33.1,19.2-68.6,47.1-88.2
								c12.4-8.7,27.6-15.5,33-5.8c8.5,15.2-28,40.2-20.7,52.4c7.3,12.2,35.8-4.9,51.9-18.7c10.9-9.3,25.2-18.8,35.7-10.3
								c14.9,12-3.7,33.4-4.8,34.9c10.8-0.6,20.3,4.8,22.9,12.1c3.5,9.8-4.7,24.9-21.1,27.7c2.1,0,17.5,0.3,20.5,7.7
								c3,7.2-6.2,20.7-25.6,30.1c12.2,0.8,20,5.4,21,9.8c2.7,12.5-14,29.4-65,49.6c-8.2,24.1-37.6,121.6-60.2,197.3
								c-24.4,81.7-125.7,111.3-189.4,54.5C1141.6,1194,1140.3,1192.8,1139,1191.6z"/>
							<path class="st2" d="M1166.6,1132.4c-0.3,0-0.6-0.1-0.9-0.2c-1.1-0.5-1.6-1.8-1.1-2.9c7.7-16.9,18.1-38.4,28.1-59.2
								c7.1-14.7,13.8-28.7,18.8-39.4c0.5-1.1,1.8-1.6,2.9-1.1c1.1,0.5,1.6,1.8,1.1,2.9c-5,10.7-11.7,24.7-18.8,39.4
								c-10,20.7-20.3,42.2-28,59.1C1168.3,1131.9,1167.5,1132.4,1166.6,1132.4z"/>
							<path class="st2" d="M1337.8,929.6c-0.3,0-0.5,0-0.8-0.1c-1.1-0.4-1.7-1.7-1.3-2.8c2.3-5.9,7.9-17,20.1-25.1
								c13.8-9.1,27.8-9.2,34.9-8.4c1.2,0.1,2.1,1.2,2,2.4c-0.1,1.2-1.2,2.1-2.4,2c-5.3-0.6-18.9-1-32,7.7
								c-11.2,7.4-16.3,17.6-18.4,23C1339.5,929,1338.7,929.6,1337.8,929.6z"/>
						</g>
					</g>
					<polygon class="st5" points="1351.5,736.4 1366.2,951.7 1352.9,952.6 1314.5,1031 1363.2,1103.4 1384.9,1102 1378.9,1014.9 
						1422.7,1011.9 1428.6,1099 1450.3,1097.5 1488.7,1019.1 1440,946.6 1426.7,947.6 1412,732.3 1425.3,731.4 1463.7,653 
						1415,580.6 1393.3,582 1399.3,669.1 1355.5,672.1 1349.6,585 1327.9,586.5 1289.5,664.9 1338.2,737.4 					"/>
					<path class="st8" d="M1425.4,808.5c-22.5,3.6-35.9,15.9-34.8,23.5c1,7,14.8,14.1,33.6,13.9c0.3,0,0.3,0.3,0,0.4
						c-22.1,4.4-35.8,14.7-35,21.7c0.7,6.4,13.7,12.5,31.7,13.9c0.3,0,0.3,0.4,0,0.4c-17.5,1.1-29.2,7.8-29.4,13.5
						c-0.3,6,13.3,19.5,46.5,15.8L1425.4,808.5z"/>
				</g>
			</g>
			<g>
				<g>
					<path class="st5" d="M768.1,774.6c5.9,23.8,15.3,47.4,8.7,75.6c-3.7,15.6-22.4,40.7-47.2,39.4c-17.1-0.9-34.3-21-31.2-41.7
						c5-33,30-37.2,30.2-69.6c0.2-24.5-20.5-54.1-47.6-56.8c-20.3-2-36.1,11.7-40.3,15.6c-4-12.8-7.9-25.7-11.9-38.5
						c18.3-7.3,31.6-8.7,49.5-8.2c-15.6-7.8-28.4-8.2-49.5-3.7c2.7-11.6,5.5-23.2,8.2-34.8c34.8-2.2,57.6,8.8,67.8,14.7
						C747.4,691.1,758.9,737.4,768.1,774.6z"/>
					<path class="st5" d="M751.9,741.7c-0.1,0-0.2,0-0.2,0c-1.2-0.1-2.1-1.2-2-2.4c1.1-10.7,1.7-38.3-16.7-63.2
						c-28-37.9-74.7-36.6-80-36.4c-1.2,0.1-2.3-0.9-2.3-2.1c-0.1-1.2,0.9-2.3,2.1-2.3c5.5-0.3,54.4-1.6,83.7,38.2
						c19.3,26.1,18.7,55.1,17.5,66.3C754,740.8,753,741.7,751.9,741.7z"/>
					<path class="st2" d="M721,808.9c-0.5,0-1-0.2-1.4-0.5c-0.4-0.4-0.7-0.9-0.8-1.5l-5.5-63.9c-0.1-1.2,0.8-2.3,2-2.4l27.4-2.4
						c1.2-0.1,2.3,0.8,2.4,2l5.5,63.9c0.1,1.2-0.8,2.3-2,2.4l-27.4,2.4C721.1,808.9,721.1,808.9,721,808.9z M717.9,744.8l5.2,59.5
						l23-2l-5.2-59.5L717.9,744.8z"/>
				</g>
				<g>
					<path class="st8" d="M821.2,689.4c3.6-1.8,38-19,69.2-3.2c23.2,11.8,34.4,34.3,47.5,74.8c15.4,47.8,18,78.5,8.2,93.1
						c-15.4,23-91.8,15.8-131.8-15.3c-28.9-22.5-42-61-35.4-97.3C785.5,705.4,818.9,690.6,821.2,689.4z"/>
					<path class="st8" d="M860.2,997.6H857c-23.6,0-42.8-19.2-42.8-42.8V822.9c0-23.6,19.2-42.8,42.8-42.8h3.3
						c23.6,0,42.8,19.2,42.8,42.8v131.9C903,978.5,883.9,997.6,860.2,997.6z"/>
					<path class="st2" d="M903,871.3C903,871.3,903,871.3,903,871.3c-32.4-0.6-67.6-12.1-89.7-29.2c-1-0.7-1.1-2.1-0.4-3.1
						c0.7-1,2.1-1.1,3.1-0.4c21.4,16.6,55.6,27.7,87,28.3c1.2,0,2.2,1,2.2,2.2C905.2,870.3,904.2,871.3,903,871.3z"/>
					<ellipse class="st8" cx="857.9" cy="981.3" rx="78" ry="56"/>
					<g>
						<path class="st1" d="M856.7,770.2c0,0,9.7,11.9,24.8,18.2c3.2,1.3,7.8-26.8,4.2-26.6C869.6,762.6,856.7,770.2,856.7,770.2z"/>
						<path class="st2" d="M931.8,783.8c0,0-19.4,11.5-40.2,7.7c-3.6-0.7-7-1.7-10.2-3.1c-3.4-9.3-1.6-19.3,4.2-26.6
							c3.6-0.2,7.4,0,11.3,0.7C917.6,766.3,931.8,783.8,931.8,783.8z"/>
					</g>
					<path class="st5" d="M898.3,895.7c-0.8,0-1.5-0.4-1.9-1.1c-9.3-16.9-24.5-51.9-20.6-96.6c3.5-40.7,20.6-70.6,34.3-88.6
						c0.7-1,2.1-1.2,3.1-0.4c1,0.7,1.2,2.1,0.4,3.1c-13.4,17.5-30,46.6-33.4,86.3c-3.7,43.5,11,77.7,20.1,94.1
						c0.6,1.1,0.2,2.4-0.9,3C899,895.6,898.6,895.7,898.3,895.7z"/>
					<path class="st2" d="M921.4,822.2c-1.6,0-3.2-0.3-4.7-1c-6.2-2.7-7.1-9.7-7.2-10c-0.1-1.2,0.7-2.3,1.9-2.5
						c1.2-0.1,2.3,0.7,2.5,1.9c0,0.2,0.6,4.8,4.6,6.5c3.2,1.4,7,0.4,9.4-2.5c0.8-0.9,2.2-1.1,3.1-0.3c0.9,0.8,1.1,2.2,0.3,3.1
						C928.7,820.6,925.1,822.2,921.4,822.2z"/>
					<path class="st8" d="M939.4,777.5c0.8,2.3,2.2,5.6,5.2,8.4c3.6,3.4,6.6,3.6,7.6,6.3c0.7,1.8,0.4,4.8-4.2,10.1L939.4,777.5z"/>
					<path class="st2" d="M948.1,804.5c-0.5,0-1-0.2-1.4-0.5c-0.9-0.8-1-2.2-0.2-3.1c3-3.5,4.4-6.3,3.8-7.9c-0.3-0.7-1-1.2-2.4-2
						c-1.3-0.8-2.9-1.8-4.7-3.4c-2.6-2.5-4.5-5.6-5.7-9.3c-0.4-1.2,0.2-2.4,1.4-2.8c1.2-0.4,2.4,0.2,2.8,1.4c1,3,2.6,5.6,4.6,7.5
						c1.4,1.3,2.7,2.1,3.9,2.8c1.7,1,3.5,2.1,4.3,4.3c1.2,3.3-0.3,7.3-4.6,12.3C949.3,804.3,948.7,804.5,948.1,804.5z"/>
					<path class="st2" d="M834.5,833.2c-5.7,0-11.7-1.5-17.1-4.5c-1.1-0.6-1.5-1.9-0.9-3c0.6-1.1,1.9-1.5,3-0.9
						c7.1,3.9,15.2,5,22.1,3c1.2-0.3,2.4,0.3,2.7,1.5c0.3,1.2-0.3,2.4-1.5,2.7C840.2,832.8,837.3,833.2,834.5,833.2z"/>
					<path class="st5" d="M758.5,692.3c54.3-66.1,156.6-27.7,165.2,31c0,0-36.6-25.3-36.8-26c-2.5,11.4-7.8,28.4-19.8,46
						c-18.4,27.2-42.3,40.6-54.2,46.3c4.7,19.3,10.8,58.5,16.1,83.4C829.1,873,669,801.3,758.5,692.3z"/>
					
						<ellipse transform="matrix(0.6802 -0.733 0.733 0.6802 -321.4418 864.7384)" class="st8" cx="830.4" cy="800.8" rx="26.7" ry="31.6"/>
					<path class="st2" d="M823.7,814.9c-0.4,0-0.8-0.1-1.2-0.4c-1-0.7-2-1.4-2.9-2.2c-3.5-3.3-5.8-7.5-6.3-12
						c-0.6-4.6,0.7-8.9,3.7-12c1.5-1.6,3.3-2.8,5.4-3.6c1.1-0.4,2.4,0.2,2.8,1.3c0.4,1.1-0.1,2.4-1.3,2.8c-1.4,0.5-2.7,1.4-3.7,2.5
						c-2,2.2-2.9,5.2-2.5,8.5c0.4,3.4,2.2,6.7,4.9,9.3c0.7,0.7,1.5,1.3,2.3,1.8c1,0.7,1.3,2,0.6,3
						C825.1,814.5,824.4,814.9,823.7,814.9z"/>
					<g>
						<path class="st3" d="M910.7,681.2c-29.7-42.9-88-56.1-133.4-29s-61.6,84.6-38,131.2L910.7,681.2z"/>
						<path class="st9" d="M814.2,737.6l174-103.9c0,0,3,44.4-30.2,76.1C893.6,771.4,814.2,737.6,814.2,737.6z"/>
					</g>
				</g>
			</g>
		</g>
		<g>
			<g>
				<path class="st1" d="M1660.9,1197.6c-1.2,0-2.2-1-2.2-2.2v-147.7c0-1.2,1-2.2,2.2-2.2c1.2,0,2.2,1,2.2,2.2v147.7
					C1663.1,1196.6,1662.1,1197.6,1660.9,1197.6z"/>
				<path class="st1" d="M1608.7,1175.9c-0.6,0-1.1-0.2-1.6-0.6c-0.9-0.9-0.9-2.3,0-3.1l104.4-104.4c0.9-0.9,2.3-0.9,3.1,0
					c0.9,0.9,0.9,2.3,0,3.1l-104.4,104.4C1609.8,1175.7,1609.3,1175.9,1608.7,1175.9z"/>
				<path class="st1" d="M1734.8,1123.7h-147.7c-1.2,0-2.2-1-2.2-2.2s1-2.2,2.2-2.2h147.7c1.2,0,2.2,1,2.2,2.2
					S1736,1123.7,1734.8,1123.7z"/>
				<path class="st1" d="M1713.1,1175.9c-0.6,0-1.1-0.2-1.6-0.6l-104.4-104.4c-0.9-0.9-0.9-2.3,0-3.1c0.9-0.9,2.3-0.9,3.1,0
					l104.4,104.4c0.9,0.9,0.9,2.3,0,3.1C1714.3,1175.7,1713.7,1175.9,1713.1,1175.9z"/>
			</g>
			<g>
				<path class="st1" d="M1542.8,1484.7c-1.2,0-2.2-1-2.2-2.2v-182.6c0-1.2,1-2.2,2.2-2.2c1.2,0,2.2,1,2.2,2.2v182.6
					C1545,1483.7,1544,1484.7,1542.8,1484.7z"/>
				<path class="st1" d="M1478.3,1457.9c-0.6,0-1.1-0.2-1.6-0.6c-0.9-0.9-0.9-2.3,0-3.1l129.1-129.1c0.9-0.9,2.3-0.9,3.1,0
					c0.9,0.9,0.9,2.3,0,3.1l-129.1,129.1C1479.4,1457.7,1478.8,1457.9,1478.3,1457.9z"/>
				<path class="st1" d="M1634.1,1393.4h-182.6c-1.2,0-2.2-1-2.2-2.2s1-2.2,2.2-2.2h182.6c1.2,0,2.2,1,2.2,2.2
					S1635.3,1393.4,1634.1,1393.4z"/>
				<path class="st1" d="M1607.4,1457.9c-0.6,0-1.1-0.2-1.6-0.6l-129.1-129.1c-0.9-0.9-0.9-2.3,0-3.1c0.9-0.9,2.3-0.9,3.1,0
					l129.1,129.1c0.9,0.9,0.9,2.3,0,3.1C1608.5,1457.7,1607.9,1457.9,1607.4,1457.9z"/>
			</g>
			<g>
				<path class="st1" d="M534.2,930.8c-1.2,0-2.2-1-2.2-2.2V780.9c0-1.2,1-2.2,2.2-2.2s2.2,1,2.2,2.2v147.7
					C536.4,929.8,535.4,930.8,534.2,930.8z"/>
				<path class="st1" d="M482,909.1c-0.6,0-1.1-0.2-1.6-0.6c-0.9-0.9-0.9-2.3,0-3.1L584.9,801c0.9-0.9,2.3-0.9,3.1,0
					c0.9,0.9,0.9,2.3,0,3.1L483.6,908.5C483.1,908.9,482.6,909.1,482,909.1z"/>
				<path class="st1" d="M608.1,856.9H460.4c-1.2,0-2.2-1-2.2-2.2s1-2.2,2.2-2.2h147.7c1.2,0,2.2,1,2.2,2.2S609.3,856.9,608.1,856.9
					z"/>
				<path class="st1" d="M586.4,909.1c-0.6,0-1.1-0.2-1.6-0.6L480.4,804.1c-0.9-0.9-0.9-2.3,0-3.1c0.9-0.9,2.3-0.9,3.1,0L588,905.4
					c0.9,0.9,0.9,2.3,0,3.1C587.6,908.9,587,909.1,586.4,909.1z"/>
			</g>
			<g>
				<path class="st10" d="M1612.5,1758.6c-1.2,0-2.2-1-2.2-2.2v-147.7c0-1.2,1-2.2,2.2-2.2s2.2,1,2.2,2.2v147.7
					C1614.7,1757.6,1613.7,1758.6,1612.5,1758.6z"/>
				<path class="st10" d="M1560.3,1737c-0.6,0-1.1-0.2-1.6-0.6c-0.9-0.9-0.9-2.3,0-3.1l104.4-104.4c0.9-0.9,2.3-0.9,3.1,0
					c0.9,0.9,0.9,2.3,0,3.1l-104.4,104.4C1561.4,1736.8,1560.9,1737,1560.3,1737z"/>
				<path class="st10" d="M1686.4,1684.8h-147.7c-1.2,0-2.2-1-2.2-2.2c0-1.2,1-2.2,2.2-2.2h147.7c1.2,0,2.2,1,2.2,2.2
					C1688.6,1683.8,1687.6,1684.8,1686.4,1684.8z"/>
				<path class="st10" d="M1664.7,1737c-0.6,0-1.1-0.2-1.6-0.6l-104.4-104.4c-0.9-0.9-0.9-2.3,0-3.1c0.9-0.9,2.3-0.9,3.1,0
					l104.4,104.4c0.9,0.9,0.9,2.3,0,3.1C1665.9,1736.8,1665.3,1737,1664.7,1737z"/>
			</g>
			<g>
				<path class="st10" d="M562.4,535.2c-1.2,0-2.2-1-2.2-2.2V385.3c0-1.2,1-2.2,2.2-2.2s2.2,1,2.2,2.2V533
					C564.7,534.2,563.7,535.2,562.4,535.2z"/>
				<path class="st10" d="M510.2,513.6c-0.6,0-1.1-0.2-1.6-0.6c-0.9-0.9-0.9-2.3,0-3.1l104.4-104.4c0.9-0.9,2.3-0.9,3.1,0
					c0.9,0.9,0.9,2.3,0,3.1L511.8,513C511.4,513.4,510.8,513.6,510.2,513.6z"/>
				<path class="st10" d="M636.3,461.4H488.6c-1.2,0-2.2-1-2.2-2.2s1-2.2,2.2-2.2h147.7c1.2,0,2.2,1,2.2,2.2
					S637.5,461.4,636.3,461.4z"/>
				<path class="st10" d="M614.7,513.6c-0.6,0-1.1-0.2-1.6-0.6L508.7,408.5c-0.9-0.9-0.9-2.3,0-3.1c0.9-0.9,2.3-0.9,3.1,0
					l104.4,104.4c0.9,0.9,0.9,2.3,0,3.1C615.8,513.4,615.2,513.6,614.7,513.6z"/>
			</g>
		</g>
	</g>
</g>
</svg>
