<?xml version="1.0" encoding="UTF-8"?>
<svg id="Illustration" xmlns="http://www.w3.org/2000/svg" viewBox="0 0 1567.41 1567.41">
  <defs>
    <style>
      .cls-1 {
        fill: #e2a18d;
      }

      .cls-1, .cls-2, .cls-3, .cls-4, .cls-5, .cls-6, .cls-7, .cls-8, .cls-9, .cls-10, .cls-11, .cls-12, .cls-13 {
        stroke-width: 0px;
      }

      .cls-2 {
        fill: #d3bba3;
      }

      .cls-3 {
        fill: #363e44;
      }

      .cls-4 {
        fill: #fff;
      }

      .cls-5 {
        fill: #776e42;
      }

      .cls-6 {
        fill: #e6d0be;
      }

      .cls-7 {
        fill: #efbc73;
      }

      .cls-8 {
        fill: #8b865c;
      }

      .cls-9 {
        fill: #f7f1eb;
      }

      .cls-10 {
        fill: #d87355;
      }

      .cls-11 {
        fill: #f2e6dc;
      }

      .cls-12 {
        fill: #84524d;
      }

      .cls-13 {
        fill: #9e6c5a;
      }
    </style>
  </defs>
  <g id="Plumber_services" data-name="Plumber services">
    <circle class="cls-11" cx="783.7" cy="783.7" r="783.7"/>
    <path class="cls-9" d="m995.07,28.85v320.38h440.96c-102.69-153.87-258.37-269.36-440.96-320.38Z"/>
    <g>
      <path class="cls-3" d="m1250.13,490.36h-28.33c-.47,0-.86-.38-.86-.86v-131.86c0-20.76-16.89-37.65-37.64-37.65s-37.65,16.89-37.65,37.65v26.65c0,.47-.38.86-.86.86h-28.33c-.47,0-.86-.38-.86-.86v-26.65c0-37.32,30.36-67.69,67.68-67.69s67.68,30.36,67.68,67.69v131.86c0,.47-.38.86-.86.86Zm-27.47-1.71h26.61v-131c0-36.38-29.59-65.97-65.97-65.97s-65.97,29.6-65.97,65.97v25.79h26.61v-25.79c0-21.7,17.66-39.36,39.36-39.36s39.36,17.66,39.36,39.36v131Z"/>
      <path class="cls-3" d="m1321.82,462.97h-36.82c-.47,0-.86-.38-.86-.86v-61.82c0-.47.38-.86.86-.86h131.25c.43,0,.79.32.85.74.06.43-.21.83-.62.94l-93.79,25.67v35.32c0,.47-.38.86-.86.86Zm-35.97-1.71h35.11v-35.12c0-.39.26-.72.63-.83l88.27-24.16h-124.02v60.1Z"/>
      <rect class="cls-6" x="950.27" y="460.3" width="572.36" height="724.74"/>
      <path class="cls-4" d="m1522.63,1185.9h-572.36c-.47,0-.86-.38-.86-.86V460.3c0-.47.38-.86.86-.86h572.36c.47,0,.86.38.86.86v724.74c0,.47-.38.86-.86.86Zm-571.5-1.71h570.65V461.16h-570.65v723.03Z"/>
      <path class="cls-4" d="m1307.21,614.89h-142.36c-84.38,0-152.78-68.4-152.78-152.78h447.92c0,84.38-68.4,152.78-152.78,152.78Z"/>
      <g>
        <path class="cls-9" d="m1376.59,743.88h-85.84c-8.8,0-17.07-3.43-23.29-9.66-6.22-6.23-9.63-14.51-9.61-23.31l.21-100.86h-32.1l-.2,100.79c-.04,17.39,6.71,33.74,18.99,46.05,12.28,12.31,28.62,19.09,46.01,19.09h85.84c18.14,0,32.9,14.76,32.9,32.9v185.2c0,18.14-14.76,32.9-32.9,32.9h-113.61c-35.85,0-65.01,29.16-65.01,65.01v92.7h32.1v-92.7c0-18.14,14.76-32.9,32.9-32.9h113.61c35.84,0,65.01-29.16,65.01-65.01v-185.2c0-35.84-29.16-65.01-65.01-65.01Z"/>
        <path class="cls-2" d="m1222.53,1185.55h-32.1c-.47,0-.86-.38-.86-.86v-92.7c0-36.32,29.55-65.86,65.86-65.86h113.61c17.67,0,32.05-14.38,32.05-32.05v-185.2c0-17.67-14.38-32.05-32.05-32.05h-85.84c-17.62,0-34.17-6.87-46.62-19.34-12.45-12.47-19.28-29.04-19.24-46.66l.2-100.79c0-.47.38-.85.86-.85h32.1c.23,0,.45.09.61.25s.25.38.25.61l-.21,100.86c-.02,8.57,3.31,16.64,9.36,22.7,6.05,6.07,14.11,9.41,22.68,9.41h85.84c36.32,0,65.86,29.55,65.86,65.86v185.2c0,36.32-29.55,65.86-65.86,65.86h-113.61c-17.67,0-32.05,14.38-32.05,32.05v92.7c0,.47-.38.86-.86.86Zm-31.25-1.71h30.39v-91.84c0-18.62,15.14-33.76,33.76-33.76h113.61c35.37,0,64.15-28.78,64.15-64.15v-185.2c0-35.37-28.78-64.15-64.15-64.15h-85.84c-9.03,0-17.52-3.52-23.9-9.91-6.38-6.39-9.88-14.89-9.86-23.92l.2-100h-30.39l-.2,99.94c-.04,17.16,6.62,33.3,18.74,45.45,12.12,12.15,28.25,18.84,45.41,18.84h85.84c18.61,0,33.76,15.14,33.76,33.76v185.2c0,18.62-15.14,33.76-33.76,33.76h-113.61c-35.37,0-64.15,28.78-64.15,64.15v91.84Z"/>
        <rect class="cls-2" x="1391.58" y="838.67" width="59.68" height="38.44"/>
        <rect class="cls-2" x="1297.79" y="1024.19" width="59.68" height="38.44" transform="translate(2371.04 -284.21) rotate(90)"/>
      </g>
      <ellipse class="cls-4" cx="1048.99" cy="428.13" rx="47.83" ry="13.08"/>
      <rect class="cls-6" x="994.93" y="434.13" width="110.57" height="23.99"/>
    </g>
    <g>
      <g>
        <path class="cls-4" d="m260.85,989.8H83.72v-225.18h343.42l-7.04,83.94c-6.7,79.84-79.12,141.24-159.24,141.24Z"/>
        <rect class="cls-4" x="83.72" y="915.7" width="182.15" height="225.18"/>
        <path class="cls-4" d="m428.53,837.7H83.72v-73.07h344.81c20.18,0,36.54,16.36,36.54,36.54s-16.36,36.54-36.54,36.54Z"/>
        <path class="cls-9" d="m411.92,838.55h-221.4c-.47,0-.86-.38-.86-.86s.38-.86.86-.86h221.4c.47,0,.86.38.86.86s-.38.86-.86.86Z"/>
        <path class="cls-9" d="m258.96,991.52h-94.87c-.47,0-.86-.38-.86-.86s.38-.86.86-.86h94.87c.47,0,.86.38.86.86s-.38.86-.86.86Z"/>
        <path class="cls-4" d="m167.43,351.21v389.22s-83.72,0-83.72,0v-305.5c0-46.23,37.48-83.72,83.72-83.72Z"/>
      </g>
      <path class="cls-9" d="m171.02,764.62h252.88s-19.33,44.25-41.23,45.09c-21.91.84-24.3-10.05-39.83-10.63-14.64-.55-4.09,60.14-3.58,84.75.28,13.58-15.53,18.02-21.51,3.44-5.97-14.58,19.12-82.93,4.78-88.19-14.34-5.26-23.9,28.55-38.24,28.97-14.34.42-14.34-31.84-26.29-34.23-11.95-2.39-16.68,26.98-23.87,24.84-7.19-2.14-20.34-30.08-27.51-33.44-7.17-3.35-16.2,2.72-24.83,2.72s-10.76-23.33-10.76-23.33Z"/>
    </g>
    <g>
      <path class="cls-7" d="m151.87,848.04v352.52h-31.16v-352.52c0-8.6,6.98-15.58,15.58-15.58s15.58,6.98,15.58,15.58Z"/>
      <path class="cls-10" d="m246.55,1233.45c-15.85-45.65-59.22-78.43-110.26-78.43s-94.41,32.78-110.26,78.43h220.52Z"/>
      <path class="cls-4" d="m188.86,1180.4c-.2,0-.4-.07-.56-.21-4.44-3.86-9.2-7.34-14.13-10.33-.4-.25-.53-.77-.29-1.18.25-.4.77-.53,1.18-.29,5.02,3.05,9.85,6.58,14.37,10.5.36.31.4.85.09,1.21-.17.19-.41.29-.65.29Z"/>
      <path class="cls-4" d="m218.04,1219.89c-.33,0-.64-.19-.78-.5-5.53-12.18-12.88-23.09-21.84-32.43-.33-.34-.32-.88.03-1.21.34-.33.88-.32,1.21.03,9.1,9.48,16.55,20.55,22.16,32.9.2.43,0,.94-.43,1.13-.11.05-.24.08-.35.08Z"/>
      <path class="cls-10" d="m250.33,1254.36H22.24c-6.21,0-11.24-5.03-11.24-11.24s5.03-11.24,11.24-11.24h228.08c6.21,0,11.24,5.03,11.24,11.24s-5.03,11.24-11.24,11.24Z"/>
      <path class="cls-3" d="m238.43,1232.74H37.36c-.47,0-.86-.38-.86-.86s.38-.86.86-.86h201.07c.47,0,.86.38.86.86s-.38.86-.86.86Z"/>
      <path class="cls-10" d="m152.34,1159.94h-32.1c-6.21,0-11.24-5.03-11.24-11.24s5.03-11.24,11.24-11.24h32.1c6.21,0,11.24,5.03,11.24,11.24s-5.03,11.24-11.24,11.24Z"/>
      <path class="cls-3" d="m152.34,1160.8h-32.1c-.47,0-.86-.38-.86-.86s.38-.86.86-.86h32.1c.47,0,.86.38.86.86s-.38.86-.86.86Z"/>
      <path class="cls-4" d="m142.51,1117c-.47,0-.86-.38-.86-.86v-47.86c0-.47.38-.86.86-.86s.86.38.86.86v47.86c0,.47-.38.86-.86.86Z"/>
      <path class="cls-4" d="m142.51,1057.8c-.47,0-.86-.38-.86-.86v-140.11c0-.47.38-.86.86-.86s.86.38.86.86v140.11c0,.47-.38.86-.86.86Z"/>
    </g>
    <g>
      <g>
        <path class="cls-1" d="m1079.11,1238.33l-84.03,107.71-127.53-34.92,65.79-98.55s130.96-20.52,145.77,25.76Z"/>
        <path class="cls-1" d="m657.29,1255.4s-43.73,134.16-91.58,142.61c-89.69,15.85-237.89-164.54-237.89-164.54l52.4-127.13,124.03,88.36,153.04,60.7Z"/>
        <path class="cls-12" d="m592.46,915.53l-120.01,244.45-38.6-30.83-57.22,172.88s98.44,123.05,183.18,119.54c75.78-3.13,170.21-231.15,170.21-231.15l186.22.38-40.44,80.75,176.37,27.89s115.66-153.07,89.94-209.95c-35.5-78.47-294.3-124.68-294.3-124.68l-255.35-49.29Z"/>
        <path class="cls-7" d="m1178.72,1430.66h-387.08s82.44-131.21,82.44-131.21l153.64,16.49,72.15,14.54c47.02,12.73,79.29,53.74,78.86,100.19Z"/>
        <path class="cls-7" d="m205.06,1387.06l47.52-342.14,128.75,61.15-39.8,149.31-25.4,69.08c-19.78,44.51-65.23,70.14-111.07,62.6Z"/>
        <path class="cls-4" d="m916.24,1191.66c-.12,0-.25-.03-.37-.08-.43-.2-.61-.71-.41-1.14l29.16-61.66c.2-.43.71-.61,1.14-.41.43.2.61.71.41,1.14l-29.16,61.66c-.15.31-.45.49-.78.49Z"/>
        <path class="cls-4" d="m436.31,1253.52c-.1,0-.21-.02-.31-.06-.44-.17-.66-.67-.49-1.11l36.14-92.69c.17-.44.67-.66,1.11-.49.44.17.66.67.49,1.11l-36.14,92.69c-.13.34-.46.55-.8.55Z"/>
      </g>
      <g>
        <polygon class="cls-1" points="1046.26 784.47 1084.44 890.9 967.29 961 918.71 838.9 1046.26 784.47"/>
        <path class="cls-7" d="m1075.25,823.19l-160.28,43.71s-8.19-164.88,53.13-180.42c64.08-16.23,107.15,136.71,107.15,136.71Z"/>
        <path class="cls-4" d="m658.7,597.83s117.08-15.72,207.67,22.51c90.6,38.23,128.7,69.07,128.7,69.07l-42.75,123.92-37.28,166.09-348.04-35.7,73.03-173.07,18.67-172.82Z"/>
        <path class="cls-3" d="m800.33,683.85l4.56-80.62c.03-.47.44-.84.9-.81.47.03.83.43.81.9l-4.41,78.12,48.47-15.76c.45-.15.93.1,1.08.55.15.45-.1.93-.55,1.08l-50.86,16.54Z"/>
        <path class="cls-3" d="m911.1,708.88l-34.74-34.89c-.33-.34-.33-.88,0-1.21.33-.33.88-.33,1.21,0l32.73,32.88,18.47-59.01c.14-.45.62-.7,1.07-.56.45.14.7.62.56,1.07l-19.32,61.72Z"/>
        <polygon class="cls-12" points="867.54 1005.69 914.61 814.09 726.51 761.82 656.62 971.24 867.54 1005.69"/>
        <path class="cls-3" d="m841.39,945.01l-114.05-31.26.23-.83,31.03-113.22,114.05,31.26-.23.83-31.03,113.22Zm-111.94-32.46l110.74,30.35,30.35-110.74-110.74-30.35-30.35,110.74Z"/>
        <polygon class="cls-12" points="761.23 778.05 725.28 778.05 725.28 592.5 761.23 593.79 761.23 778.05"/>
        <polygon class="cls-12" points="904.59 838.67 871.67 824.22 944.58 658.03 976.09 675.7 904.59 838.67"/>
        <g>
          <g>
            <path class="cls-1" d="m967.29,961c111.24-100.61,194.12-167.87,241.08-214.89,21.08-21.11,38.15-46.26,66.31-51.76,12.48-2.44,26.51-2.53,27.37,6.8,1.34,14.58-35.22,21.36-33.8,33.21,1.43,11.91,29.2,8.45,46.33,3.27,11.54-3.49,25.8-5.85,30.98,4.21,7.37,14.3-14.25,24.41-15.6,25.23,8.56,3.2,13.99,10.58,13.47,17.13-.69,8.75-12.1,17.52-25.66,14.11,1.59.72,13.34,6.21,13.16,12.87-.17,6.54-11.81,13.84-29.93,14.43,9.15,4.77,13.58,10.96,12.8,14.71-2.19,10.51-20.81,17.87-66.91,16.03-14.55,15.72-70.35,80.72-113.55,131.24-46.65,54.55-134.68,42.8-164.29-22.58-.6-1.32-1.19-2.66-1.78-4.02Z"/>
            <path class="cls-3" d="m1009.47,924.05c-.24,0-.47-.1-.64-.29-.31-.35-.28-.89.07-1.21,11.69-10.39,26.95-23.36,41.7-35.91,10.5-8.94,20.42-17.37,27.94-23.93.36-.31.9-.28,1.21.08.31.36.27.9-.08,1.21-7.52,6.57-17.45,15.01-27.96,23.95-14.74,12.54-29.99,25.51-41.67,35.89-.16.15-.37.22-.57.22Z"/>
            <path class="cls-3" d="m1210.31,826.33c-.22,0-.44-.08-.6-.25-.33-.33-.34-.88,0-1.21,3.68-3.69,11.61-10.18,23.45-12.18,13.38-2.26,23.93,2.37,29.03,5.33.41.24.55.76.31,1.17-.24.41-.76.55-1.17.31-4.9-2.85-15.04-7.3-27.88-5.12-11.37,1.92-18.99,8.16-22.52,11.7-.17.17-.39.25-.61.25Z"/>
          </g>
          <polygon class="cls-12" points="1287.26 683.83 1225.23 854.45 1214.71 850.62 1158.45 897.86 1171.23 970.2 1188.41 976.45 1213.51 907.42 1248.18 920.02 1223.08 989.05 1240.26 995.3 1296.52 948.06 1283.74 875.73 1273.23 871.9 1335.27 701.29 1345.78 705.11 1402.04 657.88 1389.26 585.54 1372.08 579.29 1346.98 648.32 1312.31 635.71 1337.41 566.68 1320.23 560.44 1263.97 607.67 1276.75 680.01 1287.26 683.83"/>
          <path class="cls-1" d="m1318.18,763.83c-18.5-4.91-33.05-.04-34.82,6.22-1.63,5.74,6.58,15.87,21.13,22.11.2.09.11.36-.11.32-18.49-4.16-32.55-.88-34.34,4.78-1.63,5.16,6.3,14.31,19.65,21.49.2.1.07.38-.14.31-13.83-5.09-25.12-3.91-27.26.38-2.27,4.55,3.61,19.54,30.35,28l25.53-83.6Z"/>
          <path class="cls-1" d="m1208.36,746.11c22.88-25.1,39.72-46.32,66.31-51.76,8.12-1.66,19.28-2.52,23.6,3.5,8.6,11.98-13.24,20.57-24.72,31.9-10.71,10.56-9.92,23.17-16.19,37.12-4.93,10.97-15.15,25.77-38.98,39.06-3.34-19.94-6.68-39.87-10.02-59.81Z"/>
        </g>
        <g>
          <path class="cls-3" d="m1162.74,1193.4h-12.64c-.47,0-.86-.38-.86-.86v-55.67c0-.47.38-.86.86-.86h12.64c.47,0,.86.38.86.86v55.67c0,.47-.38.86-.86.86Zm-11.79-1.71h10.93v-53.96h-10.93v53.96Z"/>
          <rect class="cls-8" x="796.26" y="1185.04" width="494.65" height="260.32"/>
          <rect class="cls-5" x="796.26" y="1027.51" width="494.65" height="115.7"/>
          <path class="cls-3" d="m1290.91,1446.22h-494.65c-.47,0-.86-.38-.86-.86v-260.32c0-.47.38-.86.86-.86h494.65c.47,0,.86.38.86.86v260.32c0,.47-.38.86-.86.86Zm-493.79-1.71h492.94v-258.6h-492.94v258.6Z"/>
          <path class="cls-3" d="m1290.91,1144.07h-494.65c-.47,0-.86-.38-.86-.86v-115.7c0-.47.38-.86.86-.86h494.65c.47,0,.86.38.86.86v115.7c0,.47-.38.86-.86.86Zm-493.79-1.71h492.94v-113.99h-492.94v113.99Z"/>
          <rect class="cls-3" x="796.26" y="1185.04" width="494.65" height="82.49"/>
          <rect class="cls-3" x="1032.92" y="1019.46" width="25.84" height="25.84"/>
          <path class="cls-3" d="m1058.76,1348.31h-25.84c-.47,0-.86-.38-.86-.86v-25.84c0-.47.38-.86.86-.86h25.84c.47,0,.86.38.86.86v25.84c0,.47-.38.86-.86.86Zm-24.98-1.71h24.13v-24.13h-24.13v24.13Z"/>
          <polygon class="cls-4" points="1335.67 1143.83 1298.02 1188.71 1275.48 1169.8 1313.14 1124.92 1301.96 1115.55 1246.91 1135.58 1236.73 1193.28 1243.57 1199.02 1189.29 1263.71 1242.47 1263.71 1274.78 1225.2 1281.61 1230.94 1336.67 1210.91 1346.84 1153.21 1335.67 1143.83"/>
          <path class="cls-4" d="m1164.03,1116.68l-63.08-23.91-52.25,42.68,10.83,66.58,14.14,5.36-21.35,56.32h39.8l16.35-43.13,14.14,5.36,52.25-42.68-10.83-66.58Zm-46.17,80.03l-35.39-13.41-6.08-37.36,29.32-23.94,35.39,13.41,6.08,37.36-29.31,23.94Z"/>
        </g>
        <g>
          <g>
            <path class="cls-1" d="m725.96,740.6c11.7,9.81,29.45,116.99,29.45,116.99,0,0,93.91,72.25,158.62,126.53,12.66,3.53,47.48,12.83,72.27,42.86,24.79,30.03,27.4,74.88,17.87,78.28-4.46,1.59-16.13-1.25-17.44-14.4-1.57-15.81-7.02-22.41-13.19-31.44-.16,1.73.91,10.9-5.86,15.53-6.89,4.71-16.29,2.68-17.77,2.43-2.57,5.87-4.93,10.83-12.65,13.42-9.13,3.06-17.05-2.52-17.05-2.52,0,0-8.35,9-21.51,10.31-16.92,1.68-31.09-8.99-29.3-17.18.71-3.23,5.13-9.42,17.69-9-4.72-1.41-26.71-1.49-40.64-9.58-11.59-6.73-15.54-20.01-17.61-24.09-77.4-39.66-137.39-50.4-187.99-108.84-37.11-42.86-67.21-168.53-50.17-172.84,16.86-4.27,103.79-15.64,135.27-16.45Z"/>
            <path class="cls-3" d="m973.55,1058.99c-.34,0-.66-.2-.79-.54-.91-2.27-2.08-4.43-3.48-6.42-1.69-2.41-3.7-4.57-5.99-6.44-.37-.3-.42-.84-.12-1.2.3-.37.84-.42,1.21-.12,2.41,1.96,4.53,4.25,6.31,6.78,1.47,2.1,2.7,4.38,3.66,6.77.18.44-.04.94-.48,1.11-.1.04-.21.06-.32.06Z"/>
            <path class="cls-3" d="m949.34,1078.89c-.43,0-.8-.32-.85-.76-.27-2.43-.82-4.82-1.63-7.12-.98-2.77-2.34-5.4-4.05-7.81-.27-.39-.18-.92.2-1.19.39-.27.92-.18,1.19.2,1.8,2.54,3.23,5.3,4.26,8.22.86,2.42,1.44,4.94,1.72,7.5.05.47-.29.89-.76.95-.03,0-.06,0-.1,0Z"/>
            <path class="cls-3" d="m920.5,1087.6c-.08,0-.16-.01-.24-.04-.45-.13-.71-.61-.58-1.06.89-3.03.77-6.92-.31-9.91-1.96-5.44-6.13-8.38-8.44-9.64-.41-.23-.57-.75-.34-1.16.23-.41.75-.57,1.16-.34,2.52,1.38,7.07,4.59,9.23,10.57,1.19,3.31,1.33,7.62.34,10.97-.11.37-.45.62-.82.62Z"/>
            <path class="cls-3" d="m896.22,1081.36c-.2,0-.4-.07-.57-.21l-9.49-8.39c-.35-.31-.39-.85-.07-1.21.31-.35.86-.39,1.21-.07l9.49,8.39c.35.31.39.85.07,1.21-.17.19-.4.29-.64.29Z"/>
          </g>
          <path class="cls-7" d="m753.44,777.31l-193.63,18.94s22.97-191.96,96.81-197.84c77.17-6.14,96.81,178.9,96.81,178.9Z"/>
        </g>
      </g>
      <g>
        <polygon class="cls-1" points="901.38 636.56 862.69 696.07 827.44 606.98 877.48 514.67 938.28 537.23 901.38 636.56"/>
        <path class="cls-1" d="m934.07,476.45c2.72.63,28.71,7.05,38.15,29.46,7.02,16.68,2.83,33.65-8.49,61.07-13.33,32.28-25.1,58.16-39.47,58.25-35.93.23-56.69-40.37-61.07-72.63-3.43-25.23,5.16-51.27,24.99-67.54,19.78-16.22,44.15-9.02,45.89-8.61Z"/>
        <path class="cls-3" d="m907.59,622.02c-.16,0-.32-.04-.46-.14-18.72-12.03-40.28-44.51-45.25-68.14-.1-.46.2-.92.66-1.01.46-.1.92.2,1.01.66,4.89,23.26,26.09,55.23,44.5,67.06.4.26.51.79.26,1.18-.16.25-.44.39-.72.39Z"/>
        <g>
          <path class="cls-4" d="m916.52,535.3s-.23,10.71,4.94,20.81c1.09,2.12,16.15-10.73,14.13-12.28-8.83-6.76-19.08-8.53-19.08-8.53Z"/>
          <path class="cls-3" d="m950.26,576.27s.34-15.68-8.97-26.99c-1.73-2.1-3.67-3.9-5.68-5.44-6.33,1.3-11.81,5.77-14.16,12.22,1.09,2.14,2.42,4.25,4.05,6.23,9.32,11.31,24.77,13.98,24.77,13.98Z"/>
        </g>
        <path class="cls-1" d="m957.14,576.37c-.73,1.82-1.54,4.57-1.21,7.83.4,3.92,2.17,5.66,1.39,7.8-.52,1.43-2.22,3.15-7.77,4l7.58-19.62Z"/>
        <path class="cls-3" d="m950.07,595.5c-.42,0-.78-.3-.85-.73-.07-.47.25-.9.72-.98,3.74-.57,6.01-1.67,6.56-3.17.29-.79.07-1.52-.38-2.84-.35-1.04-.79-2.33-.96-4.04-.26-2.52.14-5.11,1.19-7.7.18-.44.68-.65,1.11-.47.44.18.65.68.47,1.11-.94,2.32-1.3,4.64-1.07,6.88.15,1.51.54,2.66.88,3.66.47,1.39.87,2.58.37,3.98-.8,2.19-3.38,3.59-7.91,4.28-.04,0-.09.01-.13.01Z"/>
        <path class="cls-13" d="m974.9,480.11c-7.51-13.31-22.5-22.98-38.99-27.66l15.55,13.44-27.32-15.89c-13.77-1.84-27.61-.14-38.26,5.9-28.2,15.97-36.47,38.84-30.8,100.36,8.59-14.79,18.78-37.8,31.34-38.18,8.12-.24,14.39,4.12,17.22,6.43,9.15-14.47,16.17-28.6,31-24.88,15.72,3.95,33.92,27.91,34.89,30.01,1.59-3.1,18.71-25.85,5.35-49.52Z"/>
        <g>
          <path class="cls-12" d="m989.84,522.29c8.18-34.49-11.66-69.89-46.02-80.54-34.36-10.65-70.74,7.33-83.5,40.4l129.52,40.14Z"/>
          <path class="cls-3" d="m917.46,499.22l131.53,40.68s-21.03,21.68-52.14,19.33c-60.36-4.55-79.38-60.01-79.38-60.01Z"/>
        </g>
        <g>
          <ellipse class="cls-1" cx="885.9" cy="527.26" rx="18.58" ry="21.99" transform="translate(-56.34 108.93) rotate(-6.82)"/>
          <path class="cls-3" d="m876.98,531.45c-.37,0-.71-.24-.82-.61-.23-.76-.39-1.55-.49-2.36-.79-6.59,3.16-12.49,8.8-13.17,1.4-.17,2.79,0,4.15.48.44.16.68.65.52,1.1-.16.45-.65.68-1.1.52-1.1-.4-2.23-.53-3.36-.39-4.7.56-7.98,5.62-7.3,11.26.08.71.23,1.4.43,2.07.14.45-.12.93-.57,1.07-.08.02-.16.04-.25.04Z"/>
        </g>
        <path class="cls-3" d="m930.94,602.37c-3.06,0-5.9-1.66-7.21-4.35-1.92-3.93.55-7.71.65-7.87.26-.39.79-.5,1.19-.24.39.26.5.79.24,1.19-.02.03-2.03,3.12-.54,6.17,1.18,2.42,3.98,3.77,6.82,3.29.47-.08.91.23.99.7.08.47-.23.91-.7.99-.48.08-.97.12-1.44.12Z"/>
      </g>
    </g>
    <g>
      <rect class="cls-9" x="258.37" y="36.19" width="510.61" height="510.61"/>
      <path class="cls-3" d="m786.29,530.35h-510.61c-.47,0-.86-.38-.86-.86V18.88c0-.47.38-.86.86-.86h510.61c.47,0,.86.38.86.86v510.61c0,.47-.38.86-.86.86Zm-509.76-1.71h508.9V19.74h-508.9v508.9Z"/>
      <path class="cls-4" d="m761.93,380.63l-14.92-35.42-16.84,7.09c-3.79-4.82-8.12-9.08-12.88-12.73l6.89-16.92-35.59-14.5-6.89,16.92c-5.95-.72-12.03-.7-18.11.1l-7.09-16.84-35.42,14.92,7.09,16.84c-4.82,3.79-9.08,8.12-12.73,12.88l-16.92-6.89-14.5,35.59,16.92,6.89c-.72,5.95-.7,12.03.1,18.11l-16.84,7.09,14.92,35.42,16.84-7.09c3.79,4.82,8.12,9.08,12.88,12.73l-6.89,16.92,35.59,14.5,6.89-16.92c5.95.72,12.03.7,18.11-.1l7.09,16.84,35.42-14.92-7.09-16.84c4.82-3.79,9.08-8.12,12.73-12.88l16.92,6.89,14.5-35.59-16.92-6.89c.72-5.95.7-12.03-.1-18.11l16.84-7.09Zm-73.33,53.43c-20.36,8.57-43.82-.98-52.39-21.34-8.57-20.36.98-43.82,21.34-52.39,20.36-8.57,43.82.98,52.39,21.34,8.57,20.36-.98,43.82-21.34,52.39Z"/>
      <g>
        <path class="cls-6" d="m564.32,19.28v271.31c0,9.88-8.04,17.93-17.93,17.93h-270.71c-.25,0-.5.03-.75.04v33.92c.25.01.5.04.75.04h270.71c28.63,0,51.92-23.29,51.92-51.92V19.28h-33.99Z"/>
        <rect class="cls-2" x="577.38" y="248.72" width="8.61" height="49.21" transform="translate(308.36 855.02) rotate(-90)"/>
        <rect class="cls-2" x="520.32" y="301.02" width="8.61" height="48.31"/>
      </g>
      <g>
        <path class="cls-2" d="m638.68,190.93h-179.86c-9.88,0-17.93-8.04-17.93-17.93V19.28h-33.99v153.73c0,28.63,23.29,51.92,51.92,51.92h179.86c9.88,0,17.93,8.04,17.93,17.93v157.03c0,9.88-8.04,17.93-17.93,17.93h-176.62c-28.63,0-51.92,23.29-51.92,51.92v59.58h33.99v-59.58c0-9.88,8.04-17.93,17.93-17.93h176.62c28.63,0,51.92-23.29,51.92-51.92v-157.03c0-28.63-23.29-51.92-51.92-51.92Z"/>
        <rect class="cls-6" x="471.8" y="183.59" width="8.61" height="49.21"/>
        <rect class="cls-6" x="419.96" y="126.98" width="8.61" height="48.31" transform="translate(575.41 -273.12) rotate(90)"/>
        <rect class="cls-6" x="670.24" y="358.73" width="8.61" height="49.21" transform="translate(291.21 1057.88) rotate(-90)"/>
        <rect class="cls-6" x="613.18" y="411.02" width="8.61" height="48.31"/>
        <rect class="cls-6" x="617.9" y="183.58" width="8.61" height="49.21" transform="translate(1244.42 416.37) rotate(180)"/>
        <rect class="cls-6" x="669.75" y="241.09" width="8.61" height="48.31" transform="translate(408.81 939.3) rotate(-90)"/>
        <rect class="cls-6" x="421.96" y="462.37" width="8.61" height="49.21" transform="translate(913.24 60.71) rotate(90)"/>
        <rect class="cls-6" x="479.02" y="410.98" width="8.61" height="48.31" transform="translate(966.65 870.27) rotate(180)"/>
      </g>
      <polygon class="cls-7" points="548.53 126.53 662.87 125.7 662.92 132.75 703.16 155.59 743.06 132.17 742.98 120.65 696.71 120.99 696.55 97.76 742.81 97.42 742.72 85.9 702.49 63.06 662.59 86.48 662.64 93.53 548.29 94.36 548.24 87.31 508.01 64.47 468.1 87.89 468.19 99.41 514.45 99.08 514.62 122.31 468.36 122.64 468.44 134.16 508.68 157.01 548.58 133.58 548.53 126.53"/>
      <circle class="cls-6" cx="379.94" cy="325.17" r="44.92" transform="translate(-42.07 593.5) rotate(-73.01)"/>
      <circle class="cls-2" cx="379.94" cy="325.17" r="17.57"/>
      <rect class="cls-6" x="373.79" y="234.45" width="12.3" height="69.15"/>
      <path class="cls-10" d="m411.1,237.71c-4.29,0-8.02,2.4-9.92,5.93h-42.48c-1.9-3.53-5.63-5.93-9.92-5.93-6.22,0-11.26,5.04-11.26,11.26s5.04,11.26,11.26,11.26c4.29,0,8.02-2.4,9.92-5.93h42.48c1.9,3.53,5.63,5.93,9.92,5.93,6.22,0,11.26-5.04,11.26-11.26s-5.04-11.26-11.26-11.26Z"/>
      <path class="cls-4" d="m489.72,247.61c0,5.14-4.17,9.31-9.31,9.31s-9.31-4.17-9.31-9.31,9.31-22.7,9.31-22.7c0,0,9.31,17.56,9.31,22.7Z"/>
      <path class="cls-4" d="m478.17,291.2c0,3.52-2.85,6.37-6.37,6.37s-6.37-2.85-6.37-6.37,6.37-15.53,6.37-15.53c0,0,6.37,12.01,6.37,15.53Z"/>
      <path class="cls-4" d="m489.5,330.86c0,3.52-2.85,6.37-6.37,6.37s-6.37-2.85-6.37-6.37,6.37-15.53,6.37-15.53c0,0,6.37,12.01,6.37,15.53Z"/>
      <path class="cls-4" d="m573.73,428.7l-5.8-13.76-6.54,2.75c-1.47-1.87-3.16-3.53-5.01-4.95l2.68-6.57-13.83-5.63-2.68,6.57c-2.31-.28-4.68-.27-7.04.04l-2.75-6.54-13.76,5.8,2.75,6.54c-1.87,1.47-3.53,3.16-4.95,5.01l-6.57-2.68-5.63,13.83,6.57,2.68c-.28,2.31-.27,4.68.04,7.04l-6.54,2.75,5.8,13.76,6.54-2.75c1.47,1.87,3.16,3.53,5.01,4.95l-2.68,6.57,13.83,5.63,2.68-6.57c2.31.28,4.68.27,7.04-.04l2.75,6.54,13.76-5.8-2.75-6.54c1.87-1.47,3.53-3.16,4.95-5.01l6.57,2.68,5.63-13.83-6.57-2.68c.28-2.31.27-4.68-.04-7.04l6.54-2.75Zm-28.49,20.76c-7.91,3.33-17.02-.38-20.36-8.29-3.33-7.91.38-17.02,8.29-20.36s17.02.38,20.36,8.29c3.33,7.91-.38,17.02-8.29,20.36Z"/>
    </g>
  </g>
</svg>