<?xml version="1.0" encoding="UTF-8"?>
<svg id="_Ñëîé_1" data-name="Ñëîé 1" xmlns="http://www.w3.org/2000/svg" viewBox="0 0 403.53 404.86">
  <defs>
    <style>
      .cls-1 {
        fill: #1e9478;
      }

      .cls-1, .cls-2 {
        stroke-width: 0px;
      }

      .cls-2 {
        fill: #faa700;
      }
    </style>
  </defs>
  <path class="cls-1" d="m181.48,122.47h1.32s-.66-17.89,14.24-22.02v-1.2c-14.9-4.13-14.24-22.02-14.24-22.02h-1.32s.66,17.89-14.24,22.02v1.2c14.9,4.13,14.24,22.02,14.24,22.02Z"/>
  <path class="cls-1" d="m140.21,156.6h.51s-.25-6.91,5.5-8.5v-.46c-5.75-1.59-5.5-8.5-5.5-8.5h-.51s.25,6.91-5.5,8.5v.46c5.75,1.59,5.5,8.5,5.5,8.5Z"/>
  <path class="cls-1" d="m88.69,129.5h.51s-.25-6.91,5.5-8.5v-.46c-5.75-1.59-5.5-8.5-5.5-8.5h-.51s.25,6.91-5.5,8.5v.46c5.75,1.59,5.5,8.5,5.5,8.5Z"/>
  <path class="cls-1" d="m287.2,157.14h.51s-.25-6.91,5.5-8.5v-.46c-5.75-1.59-5.5-8.5-5.5-8.5h-.51s.25,6.91-5.5,8.5v.46c5.75,1.59,5.5,8.5,5.5,8.5Z"/>
  <path class="cls-1" d="m112.43,275.57h.51s-.25-6.91,5.5-8.5v-.46c-5.75-1.59-5.5-8.5-5.5-8.5h-.51s.25,6.91-5.5,8.5v.46c5.75,1.59,5.5,8.5,5.5,8.5Z"/>
  <path class="cls-1" d="m198.34,334.99h.51s-.25-6.91,5.5-8.5v-.46c-5.75-1.59-5.5-8.5-5.5-8.5h-.51s.25,6.91-5.5,8.5v.46c5.75,1.59,5.5,8.5,5.5,8.5Z"/>
  <path class="cls-1" d="m306.6,259.66h.51s-.25-6.91,5.5-8.5v-.46c-5.75-1.59-5.5-8.5-5.5-8.5h-.51s.25,6.91-5.5,8.5v.46c5.75,1.59,5.5,8.5,5.5,8.5Z"/>
  <g>
    <path class="cls-1" d="m235.08,349.73l6.88-6.38s-.74-2.92-4.77-1.33c-3.21,1.26-3.75-.18-4.32-1.24-.21-.39-.48-.65-.76-.79-.56-.26-1.19-.02-1.63.79-.57,1.06-1.11,2.5-4.32,1.24-4.03-1.58-4.77,1.33-4.77,1.33l7.64,8.32,6.05-1.94Z"/>
    <path class="cls-1" d="m249.7,374.67c1.93-7.13,0-10.9-6.11-14.46-3.58-2.09-6.04-5.56-7.47-8.09h-8.54l-1.09,2.09s-.61,2.44-6.72,6.01c-6.11,3.56-8.04,7.33-6.11,14.46,1.93,7.13-1.43,6.62-3.87,11.4-2.44,4.79,0,15.58,8.96,17.41,4.63.95,8.99,1.4,13.36,1.37,4.08-.03,8.17-.48,12.5-1.37,8.96-1.83,11.4-12.63,8.96-17.41s-5.8-4.28-3.87-11.4Zm-18.15-6.24v-2.83l6.47,4.87-6.47,4.87v-2.83c-3.83,0-7,2.87-7.48,6.58l-2.97-1.45-.82-.4c1.26-5.05,5.83-8.8,11.26-8.8Zm.23,23.86c-1.2,0-2.41-.19-3.59-.57-2.95-.95-5.35-3-6.76-5.76l-2.52,1.29,1.15-6.59.11-.63.13-.76,1.56.76,2.08,1.01,3.64,1.77-2.52,1.29c1.82,3.56,6.09,5.06,9.71,3.49l.27,3.35.07.85c-1.08.33-2.2.49-3.32.49Zm5.08-1.48l-.02-.19-.63-7.88,2.39,1.52h0c1.08-1.7,1.43-3.72.99-5.69-.43-1.91-1.55-3.54-3.17-4.62l2.69-2.02.69-.52c1.89,1.62,3.21,3.8,3.76,6.27.68,3.03.13,6.13-1.53,8.75h0s2.39,1.52,2.39,1.52l-7.57,2.86Z"/>
    <path class="cls-2" d="m242.7,347.67c-.42-.05-.87-.08-1.33-.08-3.66,0-7.19,1.74-7.34,1.81l-1.1.55c-3.03-.66-8.52-1.58-12.72-.95l.29,1.93c3.4-.51,6.21.12,7.8.65-2.94.8-6.46,2.28-8.9,5.02l1.46,1.3c3.64-4.08,13.04-4.99,15.68-5.16,1.44.77,3.31,1.57,5.27,1.82.25.03.49.05.73.05,2.15,0,3.88-1.23,4.09-2.93.25-1.93-1.48-3.69-3.94-4.01Zm-.64,4.95c-2.12-.27-4.2-1.33-5.53-2.14,1.25-.44,3.05-.94,4.84-.94.37,0,.74.02,1.08.07,1.44.19,2.34,1.11,2.25,1.82-.1.78-1.31,1.37-2.64,1.19Z"/>
  </g>
  <g>
    <path class="cls-2" d="m155.28,381.68s.01-.01.02-.02c0,0,4.41-9.4,5.64-12.39.33-.81.12-1.73-.65-2.15l-.19-.1c-.77-.42-1.73-.13-2.15.65-.57,1.06-1.53,2.85-2.55,4.75,0,0,0,0,0,0-.93,1.73-2.06.37-2.08.35l-.38-1.27s0,0,0,0l-3.89-12.93c-.25-.84-1.14-1.31-1.98-1.06l-.2.06c-.84.25-1.31,1.14-1.06,1.98l3.26,10.84-.51.15-3.73-12.39c-.25-.84-1.14-1.32-1.98-1.06l-.2.06c-.84.25-1.32,1.14-1.06,1.98l3.73,12.39-.53.16-3.26-10.84c-.25-.84-1.14-1.31-1.98-1.06l-.2.06c-.84.25-1.31,1.14-1.06,1.98l3.26,10.84-.46.14-2.41-8c-.25-.84-1.14-1.32-1.98-1.06l-.2.06c-.84.25-1.32,1.14-1.06,1.98l3.03,10.08s0,.01,0,.02l2.5,8.29c.32,1.06,1.19,1.75,2.01,1.65l2.76,18.99,16.26-5.58-7.39-16.9c.28-.12.52-.34.68-.62Z"/>
    <path class="cls-2" d="m183.14,350.22l-.2-.06c-.84-.25-1.72.22-1.98,1.06l-2.41,8-.46-.14,3.26-10.84c.25-.84-.22-1.72-1.06-1.98l-.2-.06c-.84-.25-1.72.22-1.98,1.06l-3.27,10.84-.53-.16,3.73-12.39c.25-.84-.22-1.73-1.06-1.98l-.2-.06c-.84-.25-1.72.22-1.98,1.06l-3.73,12.39-.51-.15,3.26-10.84c.25-.84-.22-1.72-1.06-1.98l-.2-.06c-.84-.25-1.72.22-1.98,1.06l-3.89,12.93s0,0,0,0l-.38,1.27s-1.14,1.39-2.08-.35c0,0,0,0,0,0-1.02-1.9-1.98-3.69-2.55-4.75-.41-.77-1.38-1.06-2.15-.65l-.19.1c-.77.41-.98,1.34-.65,2.15,1.23,2.99,5.64,12.39,5.64,12.39,0,0,.01.01.02.02.16.28.39.5.68.62l-7.39,16.9,16.26,5.58,2.76-18.99c.82.1,1.69-.58,2.01-1.65l2.5-8.29s0-.01,0-.02l3.03-10.08c.25-.84-.22-1.73-1.06-1.98Z"/>
  </g>
  <g>
    <path class="cls-1" d="m274.33,338.72c-1.15.9-1.36,2.56-.46,3.71.9,1.16,2.56,1.36,3.71.46,1.15-.9,1.36-2.56.46-3.72-.9-1.15-2.56-1.36-3.72-.46Zm2.72,3.61c-.91.71-2.23.55-2.94-.37-.71-.91-.55-2.22.37-2.93.91-.71,2.23-.55,2.94.37.71.91.55,2.23-.37,2.93Z"/>
    <path class="cls-1" d="m316.41,338.72c-1.15.9-1.36,2.56-.46,3.71.9,1.16,2.56,1.36,3.71.46,1.15-.9,1.36-2.56.46-3.72-.9-1.15-2.56-1.36-3.72-.46Zm2.72,3.61c-.91.71-2.23.55-2.94-.37-.71-.91-.55-2.22.37-2.93.91-.71,2.23-.55,2.94.37.71.91.55,2.23-.37,2.93Z"/>
    <path class="cls-2" d="m260.62,332.67c-2.36.81-3.62,3.37-2.82,5.73.81,2.36,3.37,3.62,5.73,2.82,2.36-.81,3.62-3.37,2.82-5.73-.81-2.36-3.37-3.62-5.73-2.82Zm1.33,6.34c-1.4.48-2.92-.27-3.39-1.67-.48-1.4.27-2.92,1.67-3.4,1.4-.48,2.92.27,3.4,1.67.48,1.4-.27,2.92-1.67,3.4Z"/>
    <path class="cls-2" d="m282.73,351.5c.09,0,.17,0,.27,0,1.34,0,1.79-.2,2.77-.64,1.33-.59,3.14-1.4,6.38-1.4s5.06.81,6.38,1.4c.98.44,1.43.64,2.77.64s1.79-.2,2.77-.64c1.33-.59,3.14-1.4,6.38-1.4.04,0,.07,0,.11,0v-18.15h11.33v-10.19h-17.15c0,4.47-3.63,8.1-8.1,8.1s-8.1-3.63-8.1-8.1h-17.15v10.19h11.33v20.19Z"/>
    <path class="cls-1" d="m323.69,343.51c-.86-.22-1.74.29-1.97,1.16-.02.09-1.12,4.31-2.5,9.55-1.64-.05-2.47-.41-3.48-.87-1.22-.55-2.61-1.17-5.27-1.17s-4.05.62-5.27,1.17c-1.1.49-1.96.88-3.89.88s-2.79-.39-3.89-.88c-1.22-.55-2.62-1.17-5.27-1.17s-4.05.62-5.27,1.17c-1.1.49-1.96.88-3.88.88s-2.79-.39-3.89-.88c-1.22-.55-2.62-1.17-5.27-1.17-.05,0-.08,0-.12.01-1.12-4.27-1.95-7.45-1.97-7.53-.22-.86-1.1-1.38-1.97-1.16-.86.23-1.38,1.1-1.16,1.97.05.19,4.87,18.74,7.06,26.61,1.19,4.26,3.81,4.9,5.28,4.9h31.54c1.46,0,4.09-.64,5.27-4.9,2.19-7.87,7.01-26.42,7.06-26.61.22-.86-.29-1.74-1.15-1.97Zm-7.72,22.98c-1.21-.07-1.86-.41-2.65-.83-1.05-.55-2.35-1.24-4.76-1.24s-3.72.69-4.77,1.24c-.9.47-1.61.85-3.16.85s-2.26-.37-3.16-.85c-1.05-.55-2.35-1.24-4.77-1.24s-3.72.69-4.77,1.24c-.9.47-1.61.85-3.16.85s-2.26-.37-3.16-.85c-1.03-.54-2.31-1.21-4.64-1.23-.24-.89-.48-1.81-.73-2.73.27-.11.61-.2,1.07-.2,2.37-.02,3.65.67,4.67,1.21.88.46,1.58.83,3.1.83s2.22-.37,3.1-.83c1.03-.54,2.31-1.21,4.67-1.21s3.65.67,4.67,1.21c.88.46,1.58.83,3.1.83s2.22-.37,3.1-.83c1.03-.54,2.31-1.21,4.67-1.21s3.65.67,4.67,1.21c.88.46,1.61.77,3.08,1.17.13.04.31.07.49.11-.23.86-.45,1.7-.67,2.5Z"/>
  </g>
  <g>
    <path class="cls-1" d="m325.58,54.44c2.84-1.03,4.3-4.17,3.27-7.01-1.03-2.84-4.17-4.3-7.01-3.27-2.84,1.03-4.3,4.17-3.27,7.01,1.03,2.84,4.17,4.3,7.01,3.27Zm-3.04-7.45c1.84-.67,3.87.28,4.54,2.12.67,1.84-.28,3.87-2.12,4.54-1.84.67-3.87-.28-4.54-2.12-.67-1.84.28-3.87,2.12-4.54Z"/>
    <path class="cls-1" d="m334.16,53.92c2.18,1.19,4.92.4,6.11-1.79,1.19-2.18.39-4.92-1.79-6.11-2.18-1.19-4.92-.39-6.11,1.79-1.19,2.18-.4,4.92,1.79,6.11Zm-1.04-5.27c.94-1.73,3.11-2.36,4.83-1.41,1.72.94,2.36,3.11,1.41,4.83-.94,1.72-3.11,2.36-4.83,1.41-1.72-.94-2.36-3.11-1.41-4.83Z"/>
    <path class="cls-1" d="m331.45,56.44c-1.3-.22-2.52.65-2.74,1.95-.22,1.29.65,2.52,1.94,2.74,1.3.22,2.52-.65,2.75-1.95.22-1.29-.65-2.52-1.95-2.74Zm1.42,2.45c-.17,1.02-1.14,1.71-2.17,1.54-1.02-.17-1.71-1.15-1.54-2.17.17-1.02,1.14-1.71,2.17-1.54,1.02.17,1.71,1.15,1.54,2.17Z"/>
    <path class="cls-1" d="m324.42,59.39c-1.97-1.08-4.43-.36-5.51,1.61-1.08,1.97-.36,4.43,1.61,5.51,1.96,1.08,4.43.36,5.51-1.61,1.08-1.97.36-4.43-1.61-5.51Zm-.13,3.77c-.64,1.16-2.1,1.59-3.26.95-1.16-.64-1.59-2.1-.95-3.26.64-1.16,2.1-1.59,3.26-.95,1.16.64,1.59,2.1.95,3.26Z"/>
    <path class="cls-2" d="m354.04,63.69l-.12-.07,3.78-7.04-9.12-4.9-3.78,7.04-.12-.07c-.29-.15-.62-.17-.95-.08,0,0-.02,0-.02,0,0,0-8.8,3.18-11.5,4.31-.73.31-1.18,1.03-.96,1.78l.05.18c.23.76,1.03,1.19,1.78.96,1.04-.31,2.8-.84,4.65-1.4,0,0,0,0,0,0,1.7-.51,1.55,1.08,1.55,1.1l-.56,1.05s0,0,0,0l-.46.85h0l-.88,1.64-4.42,8.24c-.37.7-.11,1.56.58,1.94l.17.09c.69.37,1.56.11,1.94-.58l3.01-5.61h0l1.82-3.39.42.23-1.76,3.28h0l-3.76,7c-.37.7-.11,1.56.58,1.94l.17.09c.7.37,1.56.11,1.94-.58l3.94-7.34h0l1.58-2.94.44.24-1.59,2.96h0l-3.24,6.03c-.37.7-.11,1.56.58,1.94l.17.09c.7.37,1.56.11,1.94-.58l3.01-5.61h0l1.82-3.38.39.21-3.57,6.64c-.37.7-.11,1.56.58,1.94l.17.09c.7.38,1.57.11,1.94-.58l4.49-8.36s0-.01.01-.02l3.69-6.87c.52-.96.34-2.05-.39-2.45Z"/>
    <path class="cls-1" d="m347.69,80.4c.76,1.65,1.19,3.48,1.19,5.41,0,7.17-5.81,12.99-12.99,12.99s-12.99-5.81-12.99-12.99c0-6.66,5.02-12.14,11.48-12.89l3-5.59c-.49-.04-.99-.07-1.5-.07-10.25,0-18.55,8.31-18.55,18.55s8.31,18.55,18.55,18.55,18.55-8.31,18.55-18.55c0-4.17-1.38-8.02-3.7-11.11l-3.06,5.7Z"/>
    <path class="cls-1" d="m317.34,56.5v-.19c-2.37-.66-2.26-3.5-2.26-3.5h-.21s.1,2.84-2.26,3.5v.19c2.37.66,2.26,3.5,2.26,3.5h.21s-.1-2.84,2.26-3.5Z"/>
    <path class="cls-1" d="m331.04,83.8v-.19c-2.37-.66-2.26-3.5-2.26-3.5h-.21s.1,2.84-2.26,3.5v.19c2.37.66,2.26,3.5,2.26,3.5h.21s-.1-2.84,2.26-3.5Z"/>
    <path class="cls-1" d="m330.17,43.82h.18s-.09-2.5,1.99-3.08v-.17c-2.08-.58-1.99-3.08-1.99-3.08h-.18s.09,2.5-1.99,3.08v.17c2.08.58,1.99,3.08,1.99,3.08Z"/>
  </g>
  <g>
    <path class="cls-2" d="m34.81,202.66l-6.23-1.9c1.87-5.41,5.56-15.79,5.56-15.79.54-1.77-.46-3.64-2.23-4.19-1.77-.54-3.64.46-4.19,2.23,0,0-2.74,10.67-4.22,16.2l-6.23-1.9c-3.56-1.09-6.35,2.38-9.33,7.24,0,0,0,0,.01-.01,0,0,0,0-.01.01-.86,1.41-1.75,2.93-2.67,4.49-.6,1.01-1.27,2.14-1.96,3.31l3.27,1,14.05,4.3,14.05,4.3,3.27,1c.08-1.36.15-2.67.22-3.84.11-1.81.23-3.56.3-5.21.24-5.7-.12-10.13-3.69-11.22Z"/>
    <path class="cls-2" d="m34.62,223.37l-14.38-4.4-14.38-4.4h0l-3.28-1c-.86,1.45-1.75,2.93-2.59,4.33l18.81,5.75,18.81,5.75c.09-1.63.18-3.36.28-5.04l-3.28-1h0Z"/>
    <path class="cls-1" d="m52.64,181.06c-1.82-5.65-4.67-14.77-4.67-14.77-.63-1.74-2.56-2.64-4.3-2.01-1.74.63-2.64,2.56-2.01,4.3,0,0,3.67,8.82,5.9,14.32-2.57,2.36-3.55,6.61-2.26,10.82l16.01-5.82c-1.72-4.05-5.2-6.68-8.68-6.84Zm-7.19-11.89c-.82.3-1.72-.12-2.01-.94-.3-.82.12-1.72.94-2.01.82-.3,1.72.12,2.01.94.3.82-.12,1.72-.94,2.01Z"/>
    <path class="cls-2" d="m78.76,209.8c-1.8-.7-5.33-2.53-7.28-6.56-5.53-11.47-9.1-13.61-9.86-13.95l-15.65,5.69c-.34.71-1.74,4.62,1.41,17.03,1.1,4.35-.44,8.02-1.37,9.71,1.03.03,2.97-.08,6.09-.74.54-2.55.61-6.71-1.06-13.44,0,0,3.97,5.79,5.05,12.44,1.69-.48,3.61-1.09,5.78-1.85l-1.9-9.01,5.32,7.75c1.84-.71,3.44-1.38,4.85-2.02l-1.35-5.32,4.1,4c3.29-1.68,5.04-2.98,5.88-3.73Z"/>
    <circle class="cls-1" cx="11.27" cy="237.61" r="2.45"/>
    <path class="cls-1" d="m20.61,236.27c-.74,0-1.33.6-1.33,1.33s.6,1.33,1.33,1.33,1.33-.6,1.33-1.33-.6-1.33-1.33-1.33Z"/>
    <path class="cls-1" d="m15.39,226.11c-2.07,0-3.74,1.67-3.74,3.74s1.67,3.74,3.74,3.74,3.74-1.67,3.74-3.74-1.67-3.74-3.74-3.74Z"/>
  </g>
  <g>
    <path class="cls-1" d="m67.18,294.97c-2.44-4.77-5.78-4.26-3.86-11.36,1.93-7.1,0-10.86-6.09-14.41-.6-.35-1.21-.97-1.82-1.75-4.74-4.06-8.5-9.94-9.4-11.4-.17.07-.34.12-.5.18.17.32.28.68.28,1.07,0,.76-.38,1.42-.95,1.83.57.41.95,1.08.95,1.83s-.38,1.42-.95,1.83c.57.41.95,1.08.95,1.83s-.38,1.42-.95,1.83c.57.41.95,1.08.95,1.83,0,1.25-1.01,2.26-2.26,2.26h-8.31c-.86,0-1.61-.49-1.99-1.2-5.88,3.51-7.73,7.25-5.83,14.25,1.93,7.1-1.42,6.6-3.86,11.36-2.44,4.77,0,15.53,8.93,17.35,4.62.94,8.96,1.4,13.32,1.36,4.07-.03,8.14-.48,12.46-1.36,8.93-1.83,11.36-12.58,8.93-17.35Z"/>
    <path class="cls-1" d="m45.46,251.46c.71.17,3.09.78,5.12,1.5l5.03-4.66s-.74-2.91-4.75-1.33c-3.2,1.26-3.74-.17-4.3-1.23-.21-.39-.47-.65-.76-.78-.56-.26-1.19-.02-1.62.78-.57,1.05-1.11,2.49-4.3,1.23-4.02-1.58-4.75,1.33-4.75,1.33l5.49,5.09,4.73-1.96.14.03Z"/>
    <path class="cls-2" d="m44.93,257.3c0-.29-.09-.55-.23-.78-1.28.4-2.55.62-3.68.62-.54,0-1.03-.05-1.46-.15-.67-.16-.99-.53-1.15-.82-.05-.09-.08-.18-.11-.28h-3.09c-.77,0-1.41.63-1.41,1.41s.63,1.41,1.41,1.41h8.31c.77,0,1.41-.63,1.41-1.41Z"/>
    <path class="cls-2" d="m44.93,260.97c0-.77-.63-1.41-1.41-1.41h-8.31c-.77,0-1.41.63-1.41,1.41s.63,1.41,1.41,1.41h8.31c.77,0,1.41-.63,1.41-1.41Z"/>
    <path class="cls-2" d="m44.93,264.64c0-.77-.63-1.41-1.41-1.41h-8.31c-.77,0-1.41.63-1.41,1.41s.63,1.41,1.41,1.41h8.31c.77,0,1.41-.63,1.41-1.41Z"/>
    <path class="cls-2" d="m35.21,269.71h8.31c.77,0,1.41-.63,1.41-1.41s-.63-1.41-1.41-1.41h-8.31c-.77,0-1.41.63-1.41,1.41s.63,1.41,1.41,1.41Z"/>
    <path class="cls-2" d="m45.39,252.32l-6.25,2.59c-.06.23-.1.6.04.86.1.19.29.31.58.38,1.49.35,4.02-.06,6.25-1.04l.35-.15.19.33c.06.09,5.6,9.37,11.96,13.43h5.52v-9.14h-9.65l-.05-.38s-.14-1.09-.58-2.22c-.29-.9-.58-1.56-.85-1.93-.57-.78-4.85-2.07-7.52-2.73Z"/>
  </g>
  <g>
    <path class="cls-2" d="m350.87,305.89c-4.2,0-7.61,3.42-7.61,7.61s3.42,7.61,7.61,7.61,7.61-3.42,7.61-7.61-3.42-7.61-7.61-7.61Zm0,10.9c-1.82,0-3.29-1.47-3.29-3.29s1.47-3.29,3.29-3.29,3.29,1.47,3.29,3.29-1.47,3.29-3.29,3.29Z"/>
    <path class="cls-1" d="m381.84,273.15h-46.1c-.33,0-.59.26-.59.59v2.07c0,.33.26.59.59.59h.19v36.8h1.72c1.3,0,2.35-1.05,2.35-2.35v-34.45h.87l3.13,30.86c1.7-1.87,4.15-3.06,6.87-3.06,5.13,0,9.3,4.17,9.3,9.3,0,2.47-.98,4.72-2.55,6.38h17c1.03,0,1.87-.84,1.87-1.87l4.3-41.62h1.06c.33,0,.59-.26.59-.59v-2.07c0-.33-.26-.59-.59-.59Zm-27.77,17.98l-2.62-1.28-.72-.35c1.11-4.46,5.15-7.77,9.95-7.77v-2.5l5.72,4.3-5.72,4.3v-2.5c-3.38,0-6.18,2.54-6.6,5.81Zm6.81,11.68c-1.06,0-2.13-.17-3.17-.5-2.61-.84-4.73-2.65-5.97-5.09l-2.23,1.14,1.01-5.82.1-.55.12-.67,1.38.67,1.83.89,3.21,1.57-2.23,1.14c1.61,3.14,5.38,4.47,8.58,3.08l.24,2.96.06.75c-.95.29-1.94.43-2.93.43Zm4.49-1.31v-.17s-.57-6.96-.57-6.96l2.11,1.34h0c.95-1.5,1.26-3.29.88-5.02-.38-1.68-1.37-3.13-2.8-4.08l2.37-1.78.61-.46c1.67,1.43,2.83,3.35,3.32,5.54.6,2.67.12,5.42-1.35,7.73h0s2.11,1.34,2.11,1.34l-6.69,2.52Z"/>
  </g>
  <g>
    <path class="cls-1" d="m372.28,144.71c4.06,0,5.71-3.5,5.71-6.66h-11.42c0,3.15,1.82,6.66,5.71,6.66Z"/>
    <path class="cls-1" d="m368.41,130.48c0,1.02-.82,1.85-1.84,1.85s-1.84-.83-1.84-1.85.83-1.85,1.84-1.85,1.84.83,1.84,1.85Z"/>
    <path class="cls-1" d="m367.54,130.04c0,.42-.34.77-.77.77s-.77-.34-.77-.77.34-.77.77-.77.77.34.77.77Z"/>
    <path class="cls-1" d="m376.14,130.48c0,1.02.83,1.85,1.85,1.85s1.84-.83,1.84-1.85-.83-1.85-1.84-1.85-1.85.83-1.85,1.85Z"/>
    <path class="cls-1" d="m377.02,130.04c0,.42.34.77.76.77s.76-.34.76-.77-.34-.77-.76-.77-.76.34-.76.77Z"/>
    <g>
      <path class="cls-2" d="m383.42,112.93s-8.39,7.86-21.93,7.86c0,0-.08-3.54-2.69-3.84-1.64-.19-3.05.59-3.79,1.8-2.79-2.75-7.29-5.98-12.98-5.82,0,0,2.61,10.62,10.61,10.62-8,0-6.11,14.91-6.11,14.91,8.17-3.34,11.36-10.55,12.54-14.53.18,0,13.2,6.54,32.54-2.17.19-.09-2.99-6.77-8.2-8.83Z"/>
      <g>
        <path class="cls-1" d="m363.03,118.92c8.17-.39,14.2-3.76,17.14-5.8-2.44-.99-5.1-1.54-7.89-1.54-4.51,0-8.69,1.43-12.11,3.85,1.6.64,2.47,2.11,2.87,3.49Z"/>
        <path class="cls-1" d="m386.52,125.7c1.93,2.21,3.05,4.91,3.05,7.84,0,8.09-7.76,14.67-17.29,14.67s-16.48-5.93-17.22-13.44c-.94,1-2.01,1.96-3.23,2.84,1.33,5.68,4.97,10.31,10.42,13.49l2.21-2.51c2.39.93,5.03,1.46,7.82,1.46s5.42-.53,7.81-1.46l2.2,2.51c6.98-4.07,11-10.5,11-18.48,0-3.13-.69-6.09-1.91-8.76-1.62.7-3.25,1.31-4.87,1.84Z"/>
      </g>
    </g>
    <g>
      <path class="cls-2" d="m403.53,172.91c0-10.32-4.96-18.74-10.79-19.43v24.54h10.79v-5.12Z"/>
      <path class="cls-2" d="m341.03,172.91v5.12h10.79v-22.54c-6.39,3.2-10.79,9.79-10.79,17.43Z"/>
      <path class="cls-1" d="m372.28,165.72h0s0,0,0,0h14.37v-12.31h-26.12c-.89,0-1.76.08-2.62.2v12.11h14.37Z"/>
    </g>
  </g>
  <g>
    <path class="cls-1" d="m362.08,219.95h.4s-.2-5.44,4.33-6.7v-.36c-4.53-1.26-4.33-6.7-4.33-6.7h-.4s.2,5.44-4.33,6.7v.36c4.53,1.26,4.33,6.7,4.33,6.7Z"/>
    <path class="cls-1" d="m384,195.63h.57s-.28-7.72,6.14-9.5v-.52c-6.43-1.78-6.14-9.5-6.14-9.5h-.57s.28,7.72-6.14,9.5v.52c6.43,1.78,6.14,9.5,6.14,9.5Z"/>
    <path class="cls-2" d="m374.85,224.22c-1.42,0-2.58,1.16-2.58,2.58s1.16,2.58,2.58,2.58,2.58-1.16,2.58-2.58-1.16-2.58-2.58-2.58Zm0,4.07c-.82,0-1.49-.67-1.49-1.49s.67-1.49,1.49-1.49,1.49.67,1.49,1.49-.67,1.49-1.49,1.49Z"/>
    <path class="cls-2" d="m367.67,242.12c-1.1,0-1.99.89-1.99,1.99s.89,1.99,1.99,1.99,1.99-.89,1.99-1.99-.89-1.99-1.99-1.99Zm0,2.9c-.5,0-.91-.41-.91-.91s.41-.9.91-.9.91.41.91.9-.41.91-.91.91Z"/>
    <path class="cls-2" d="m362.28,231.92c-1.1,0-1.99.89-1.99,1.99s.89,1.99,1.99,1.99,1.99-.89,1.99-1.99-.89-1.99-1.99-1.99Zm0,2.9c-.5,0-.9-.41-.9-.91s.41-.9.9-.9.91.41.91.9-.41.91-.91.91Z"/>
    <path class="cls-2" d="m381.57,208.41c-1.8,0-3.26,1.46-3.26,3.26s1.46,3.26,3.26,3.26,3.26-1.46,3.26-3.26-1.46-3.26-3.26-3.26Zm0,5.43c-1.2,0-2.17-.97-2.17-2.17s.97-2.17,2.17-2.17,2.17.98,2.17,2.17-.97,2.17-2.17,2.17Z"/>
    <path class="cls-2" d="m359.61,241.34c-1.1,0-1.99.89-1.99,1.99s.89,1.99,1.99,1.99,1.99-.89,1.99-1.99-.89-1.99-1.99-1.99Zm0,2.9c-.5,0-.91-.41-.91-.91s.41-.9.91-.9.9.41.9.9-.41.91-.9.91Z"/>
    <path class="cls-2" d="m388.36,217.91c-1.1,0-1.99.89-1.99,1.99s.89,1.99,1.99,1.99,1.99-.89,1.99-1.99-.89-1.99-1.99-1.99Zm0,2.9c-.5,0-.9-.41-.9-.91s.41-.9.9-.9.91.41.91.9-.41.91-.91.91Z"/>
    <path class="cls-2" d="m398.67,213.06c-.72-2.68-2.19-5.19-4.4-7.17-2.74-2.46-6.28-3.82-9.96-3.82-4.22,0-8.26,1.8-11.08,4.94-1.99,2.22-2.49,4.91-2.93,7.28-.21,1.14-.41,2.21-.75,3.22-.87,2.58-5.14,7.32-7.61,8.46-.96.44-2.01.76-3.12,1.09-2.31.69-4.93,1.47-6.93,3.69-5.49,6.11-4.99,15.55,1.12,21.04,2.68,2.41,6.12,3.75,9.72,3.81,6.34,1.21,13.92.9,16.71-2.2,2.28-2.54,2.16-5.8,3.26-8.73.99-2.64,5.11-7.23,7.63-8.49,2.79-1.4,6.05-1.63,8.34-4.17,3.27-3.64,2.46-12.8,0-18.93Zm-25.03,40.42c-.8,0-1.45-.65-1.45-1.45s.65-1.45,1.45-1.45,1.45.65,1.45,1.45-.65,1.45-1.45,1.45Zm5.2-11.22c-.8,0-1.45-.65-1.45-1.45s.65-1.45,1.45-1.45,1.45.65,1.45,1.45-.65,1.45-1.45,1.45Zm9.51-9.13c-.8,0-1.45-.65-1.45-1.45s.65-1.45,1.45-1.45,1.45.65,1.45,1.45-.65,1.45-1.45,1.45Zm-.82-5.64c-1.17.35-2.38.71-3.56,1.25-3.29,1.52-8.17,6.95-9.33,10.38-.41,1.23-.64,2.47-.87,3.67-.4,2.14-.77,4.16-2.15,5.69-2.2,2.45-5.36,3.86-8.66,3.86h0c-2.87,0-5.64-1.06-7.78-2.98-4.77-4.29-5.17-11.66-.88-16.44,1.38-1.53,3.35-2.12,5.43-2.74,1.17-.35,2.38-.71,3.56-1.25,3.29-1.52,8.17-6.95,9.33-10.38.41-1.23.64-2.47.87-3.67.4-2.14.77-4.16,2.15-5.69,2.2-2.45,5.36-3.86,8.66-3.86,2.87,0,5.64,1.06,7.78,2.98,2.31,2.08,3.68,4.93,3.84,8.04.17,3.1-.89,6.09-2.97,8.4-1.38,1.53-3.35,2.12-5.43,2.74Zm8.6,2.74c-.8,0-1.45-.65-1.45-1.45s.65-1.45,1.45-1.45,1.45.65,1.45,1.45-.65,1.45-1.45,1.45Z"/>
  </g>
  <g>
    <path class="cls-1" d="m25.81,108.34h.41s-.2-5.57,4.43-6.85v-.37c-4.63-1.28-4.43-6.85-4.43-6.85h-.41s.2,5.56-4.43,6.85v.37c4.63,1.28,4.43,6.85,4.43,6.85Z"/>
    <path class="cls-1" d="m17.3,112.35h.19s-.1-2.59,2.06-3.19v-.17c-2.16-.6-2.06-3.19-2.06-3.19h-.19s.1,2.59-2.06,3.19v.17c2.16.6,2.06,3.19,2.06,3.19Z"/>
    <path class="cls-2" d="m42.17,122.05h-25.66c0,6.94,3.84,12.97,9.51,16.11v16.48h36.24v-9.3h-18.47v-7.18c2.9-1.6,5.31-3.96,6.98-6.81h11.48v-9.3h-20.09Z"/>
    <rect class="cls-1" x="16.5" y="115.62" width="34.3" height="3.73"/>
    <polygon class="cls-1" points="60.64 89.82 60.64 86.92 53.69 86.92 53.69 89.82 49.72 89.82 52.21 119.35 62.25 119.35 64.62 89.82 60.64 89.82"/>
  </g>
  <g>
    <g>
      <path class="cls-1" d="m94.27,318.09c1.28.22,2.49-.64,2.71-1.92.22-1.28-.64-2.49-1.92-2.71-1.28-.22-2.49.64-2.71,1.92-.22,1.28.64,2.49,1.92,2.71Zm-1.46-2.83c.17-1.01,1.13-1.69,2.14-1.52,1.01.17,1.69,1.13,1.52,2.14-.17,1.01-1.13,1.69-2.14,1.52-1.01-.17-1.69-1.13-1.52-2.14Z"/>
      <path class="cls-1" d="m83.29,313.47c1.91.32,3.73-.96,4.06-2.88.33-1.91-.96-3.73-2.88-4.06-1.91-.33-3.73.96-4.06,2.87-.33,1.92.96,3.73,2.88,4.06Zm-1.84-3.97c.26-1.51,1.69-2.53,3.21-2.27,1.51.26,2.53,1.69,2.27,3.2-.26,1.51-1.69,2.53-3.21,2.27-1.51-.26-2.53-1.69-2.27-3.2Z"/>
      <path class="cls-1" d="m111.2,310.21c1.59-1.12,1.96-3.32.84-4.9-1.12-1.58-3.32-1.96-4.9-.84-1.58,1.12-1.96,3.32-.83,4.9,1.12,1.58,3.32,1.96,4.9.83Zm-3.83-4.89c1.25-.89,2.99-.59,3.87.66.89,1.25.59,2.99-.66,3.87-1.25.89-2.98.59-3.87-.66-.89-1.25-.59-2.99.66-3.87Z"/>
    </g>
    <g>
      <path class="cls-1" d="m79.98,327.7l1.25,19.82c8.4,2.09,17.28-2.19,21.86-10.18-.49-.74-.66-1.69-.35-2.59.52-1.57,2.22-2.42,3.79-1.9,1.57.52,2.42,2.22,1.9,3.79-.35,1.05-1.23,1.77-2.24,1.98-5.06,9.17-15.07,14.26-24.74,12.35l1.12,17.83s7.47-.1,16.7-.1h0c9.23,0,16.7.1,16.7.1l2.54-41.1h-38.53Z"/>
      <path class="cls-2" d="m118.51,327.68h-.06c.51-1.3.9-2.84.9-4.09,0-5.65-4.56-10.24-10.19-10.32h0s-.03,0-.05,0c-.03,0-.06,0-.09,0-1.22,0-2.42.22-3.56.64-1.12-3.83-4.65-6.55-8.77-6.55-4.63,0-8.47,3.46-9.07,7.93-.42-.07-.85-.11-1.28-.11-4.34,0-7.88,3.53-7.88,7.88,0,1.67.53,3.29,1.51,4.63h38.53Zm-35.47,0c-1.71-1.85-2.16-3.3-2.16-4.62,0-3.01,2.45-5.47,5.47-5.47.67,0,1.34.13,1.98.38l1.72.67-.09-2.01s0-.09,0-.13c0-3.71,3.02-6.74,6.74-6.74,3.32,0,6.1,2.39,6.64,5.62-1.72,1.43-2.92,3.48-3.23,5.81-.42-.07-.85-.11-1.28-.11-3.9,0-7.14,2.85-7.76,6.58h-8.02Zm32.8,0h-22.32c.58-2.39,2.74-4.17,5.3-4.17.67,0,1.34.13,1.98.38l1.73.67-.09-2.01s0-.09,0-.13c0-3.7,3-6.71,6.69-6.73,4.32.05,7.82,3.58,7.82,7.91,0,1.15-.57,2.94-1.1,4.09Z"/>
    </g>
  </g>
  <path class="cls-2" d="m300.2,268.1c-2.79,1.98-3.45,5.85-1.47,8.64,1.98,2.79,5.85,3.45,8.64,1.47,2.79-1.98,3.45-5.85,1.47-8.63-1.98-2.79-5.84-3.45-8.63-1.47Zm8.01,2.56c1.56,2.2,1.05,5.26-1.16,6.82-2.2,1.56-5.26,1.04-6.82-1.16-1.56-2.2-1.05-5.26,1.16-6.82,2.2-1.56,5.26-1.04,6.82,1.16Z"/>
  <path class="cls-2" d="m139.38,91.45c-4.17,2.96-5.16,8.75-2.2,12.93,2.96,4.18,8.75,5.17,12.93,2.2,4.18-2.96,5.16-8.74,2.21-12.92-2.96-4.18-8.75-5.17-12.93-2.21Zm10.84,3.98c2.34,3.3,1.56,7.88-1.74,10.21-3.3,2.34-7.87,1.57-10.21-1.74-2.34-3.3-1.56-7.88,1.74-10.21,3.3-2.34,7.87-1.57,10.21,1.74Z"/>
  <path class="cls-2" d="m89.3,216.61c-4.17,2.96-5.16,8.75-2.2,12.93,2.96,4.18,8.75,5.17,12.93,2.2,4.18-2.96,5.16-8.74,2.21-12.92-2.96-4.18-8.75-5.17-12.93-2.21Zm10.84,3.98c2.34,3.3,1.56,7.88-1.74,10.21-3.3,2.34-7.87,1.57-10.21-1.74-2.34-3.3-1.56-7.88,1.74-10.21,3.3-2.34,7.87-1.57,10.21,1.74Z"/>
  <path class="cls-2" d="m93.41,149.56c-.87,5.05,2.53,9.83,7.58,10.69,5.05.86,9.84-2.53,10.7-7.58.86-5.05-2.54-9.84-7.59-10.7-5.05-.86-9.84,2.53-10.69,7.59Zm16.25,1.97c-.68,3.99-4.46,6.67-8.45,5.99-3.99-.68-6.67-4.46-5.99-8.45.68-3.99,4.46-6.67,8.45-5.99,3.99.68,6.67,4.47,5.99,8.45Z"/>
  <path class="cls-1" d="m306.25,210.12c-.87,5.05,2.53,9.83,7.58,10.7,5.05.86,9.84-2.53,10.7-7.58.86-5.05-2.54-9.84-7.59-10.7-5.05-.86-9.84,2.53-10.69,7.59Zm16.25,1.97c-.68,3.99-4.46,6.67-8.45,5.99-3.99-.68-6.67-4.46-5.99-8.45.68-3.99,4.46-6.67,8.45-5.99,3.99.68,6.67,4.47,5.99,8.45Z"/>
  <path class="cls-2" d="m297.72,162.6c-.87,5.05,2.53,9.83,7.58,10.7,5.05.86,9.84-2.53,10.7-7.58.86-5.05-2.54-9.84-7.59-10.7-5.05-.86-9.84,2.53-10.69,7.59Zm16.25,1.97c-.68,3.99-4.46,6.67-8.45,5.99-3.99-.68-6.67-4.46-5.99-8.45.68-3.99,4.46-6.67,8.45-5.99,3.99.68,6.67,4.47,5.99,8.45Z"/>
  <path class="cls-2" d="m140.59,324.7c-.87,5.05,2.53,9.83,7.58,10.69,5.05.86,9.84-2.53,10.7-7.58.86-5.05-2.54-9.84-7.59-10.7-5.05-.86-9.84,2.53-10.69,7.59Zm16.25,1.97c-.68,3.99-4.46,6.67-8.45,5.99-3.99-.68-6.67-4.46-5.99-8.45.68-3.99,4.46-6.67,8.45-5.99,3.99.68,6.67,4.47,5.99,8.45Z"/>
  <path class="cls-2" d="m222.53,82.15c-.87,5.05,2.53,9.83,7.58,10.7,5.05.86,9.84-2.53,10.7-7.58.86-5.05-2.54-9.84-7.59-10.7-5.05-.86-9.84,2.53-10.69,7.59Zm16.25,1.97c-.68,3.99-4.46,6.67-8.45,5.99-3.99-.68-6.67-4.46-5.99-8.45.68-3.99,4.46-6.67,8.45-5.99,3.99.68,6.67,4.47,5.99,8.45Z"/>
  <path class="cls-2" d="m286.17,102.81c-.87,5.05,2.53,9.83,7.58,10.7,5.05.86,9.84-2.53,10.7-7.58.86-5.05-2.54-9.84-7.59-10.7-5.05-.86-9.84,2.53-10.69,7.59Zm16.25,1.97c-.68,3.99-4.46,6.67-8.45,5.99-3.99-.68-6.67-4.46-5.99-8.45.68-3.99,4.46-6.67,8.45-5.99,3.99.68,6.67,4.47,5.99,8.45Z"/>
  <path class="cls-2" d="m232.82,309.3c-.87,5.05,2.53,9.83,7.58,10.7,5.05.86,9.84-2.53,10.7-7.58.86-5.05-2.54-9.84-7.59-10.7-5.05-.86-9.84,2.53-10.69,7.59Zm16.25,1.97c-.68,3.99-4.46,6.67-8.45,5.99-3.99-.68-6.67-4.46-5.99-8.45.68-3.99,4.46-6.67,8.45-5.99,3.99.68,6.67,4.47,5.99,8.45Z"/>
  <g>
    <path class="cls-1" d="m114.35,63.61l.45-.59c.62-.82.47-1.98-.35-2.6l-5.46-4.16c-.82-.63-1.98-.47-2.6.35l-.45.59,8.4,6.41Z"/>
    <path class="cls-1" d="m141.76,65.28c-2.86-5.16-8.62-7.33-11.61-8.15.03.05.07.09.08.15.13.48-.22,1.79-.6,2.18,2.65.75,7.66,2.67,10.05,6.97,3.36,6.05-1.88,12.92-1.93,12.98l1.89,1.44c.26-.33,6.26-8.14,2.13-15.58Z"/>
    <path class="cls-2" d="m129.52,56.62c-.23-.42-.85-.68-1.32-.83-.08-.14-.18-.27-.3-.38-9.65-8.52-19.06-12.24-27.2-13.47-2.83-.43-5.51-.55-7.99-.47-5.58.18-10.17,1.39-13.29,2.54-1.81.67-3.2,1.35-4.15,1.88-.19.11-.36.21-.52.29-1.3.76-.22,2.1-.22,2.1l32.81,25.04c2.07-.11,2.92.07,4.06.58,1,.45,2.11,1.33,3.17,1.59,2.12.52,3.36-.78,3.94-1.65,2.52-3.81,7.65-13.61,7.65-13.61,0,0,.01,0,.02,0,.53-.18.96-.47,1.3-.82.52.16,1.04.09,1.38-.17.03-.02.05-.05.07-.08.41-.43.79-1.86.66-2.38-.02-.06-.05-.11-.08-.17Zm-14.8,8.6l-14.07-10.78s5.56-7.29,22.22,5.42c0,0-6.26,4.67-8.15,5.37Z"/>
    <path class="cls-1" d="m106.58,75.4c-.07-.05-.25-.19-.53-.4l.38-.49-32.82-25.04-.37.49c-.43-.33-.77-.59-.98-.75-.91-.69-2.07.64-1.1,1.37,8.39,6.41,29.8,22.74,33.91,25.88,1.64,1.25,2.72-.14,1.52-1.06Z"/>
    <path class="cls-1" d="m100.89,40.92l-3.8-2.9c-.81-.62-1.98-.46-2.6.35l-1.59,2.08c2.49-.08,5.16.04,7.99.47Z"/>
    <path class="cls-2" d="m100.96,81.26c-2.56,3.71-6.94,4.5-10.65,1.94-.87-.6-1.58-1.35-2.13-2.24-.19-.31-.5-.52-.85-.59-.35-.07-.72.02-1.01.22-3.1,2.24-7.29,2.29-10.42.12-3.14-2.17-4.57-6.1-3.57-9.79.09-.35.04-.72-.15-1.02-.19-.31-.5-.52-.85-.59-1.03-.2-1.98-.61-2.85-1.21-1.68-1.16-2.81-2.91-3.18-4.92-.37-2.01.07-4.04,1.24-5.72.32-.46.71-.91,1.16-1.32.53-.48.57-1.29.09-1.82-.48-.53-1.3-.57-1.83-.09-.6.55-1.12,1.14-1.55,1.77-1.56,2.25-2.15,4.96-1.65,7.66.49,2.69,2,5.03,4.25,6.59.79.54,1.65.97,2.54,1.27-.67,4.36,1.19,8.79,4.86,11.33,3.68,2.54,8.48,2.72,12.32.55.6.73,1.3,1.38,2.09,1.93,1.9,1.31,3.97,1.95,5.98,1.95,3.17,0,6.2-1.57,8.26-4.55.41-.59.26-1.39-.33-1.8-.58-.41-1.39-.26-1.8.33Z"/>
    <path class="cls-1" d="m77.56,60.91c.35-.32.38-.86.06-1.22-.32-.35-.86-.38-1.22-.06-.32.3-.61.62-.85.97-.85,1.23-1.17,2.71-.9,4.18.27,1.47,1.09,2.75,2.32,3.6.39.27.81.49,1.25.65-.3,2.32.71,4.66,2.67,6.02,1.96,1.36,4.51,1.47,6.57.37.3.35.66.67,1.05.94,1.04.72,2.17,1.06,3.27,1.06,1.73,0,3.39-.85,4.51-2.48.27-.4.17-.93-.22-1.2-.39-.27-.93-.18-1.2.22-1.52,2.2-3.8,2.08-5.38.98-.44-.3-.8-.69-1.08-1.14-.12-.2-.33-.34-.57-.39-.23-.04-.48.01-.67.15-1.57,1.14-3.71,1.17-5.3.06-1.6-1.11-2.33-3.11-1.81-4.99.06-.23.03-.48-.1-.68-.13-.2-.33-.34-.56-.39-.52-.1-1-.31-1.44-.61-.85-.59-1.42-1.47-1.61-2.48-.18-1.02.04-2.05.62-2.9.16-.24.36-.46.59-.67Z"/>
  </g>
  <g>
    <path class="cls-2" d="m295.8,15.92c-.07-.17-.17-.32-.3-.45-.25-.26-.61-.41-1-.41h-44.69c-.39,0-.74.16-1,.41-.13.13-.23.28-.3.45-.07.17-.11.35-.11.55v7.2h47.51v-7.2c0-.19-.04-.38-.11-.55Zm-34.01,5.78h-10.98v-4.13h10.98v4.13Zm6.94-.8c-.7,0-1.27-.57-1.27-1.27s.57-1.27,1.27-1.27,1.27.57,1.27,1.27-.57,1.27-1.27,1.27Zm6.52,0c-.7,0-1.27-.57-1.27-1.27s.57-1.27,1.27-1.27,1.27.57,1.27,1.27-.57,1.27-1.27,1.27Zm6.52,0c-.7,0-1.27-.57-1.27-1.27s.57-1.27,1.27-1.27,1.27.57,1.27,1.27-.57,1.27-1.27,1.27Zm6.52,0c-.7,0-1.27-.57-1.27-1.27s.57-1.27,1.27-1.27,1.27.57,1.27,1.27-.57,1.27-1.27,1.27Z"/>
    <path class="cls-2" d="m248.3,70.74c0,.78.63,1.41,1.41,1.41h44.69c.78,0,1.41-.63,1.41-1.41V25.67h-47.51v45.08Zm24.09-38.7c9.09,0,16.49,7.4,16.49,16.49s-7.4,16.49-16.49,16.49-16.49-7.4-16.49-16.49,7.4-16.49,16.49-16.49Z"/>
    <path class="cls-1" d="m272.39,62.45c.93,0,1.85-.1,2.73-.27.07-.02.15-.03.22-.05.29-.06.57-.14.86-.22.3-.09.59-.18.89-.29.14-.05.27-.1.41-.15.23-.09.46-.19.68-.29.09-.04.19-.09.28-.14.35-.17.68-.35,1.02-.55.16-.09.32-.19.47-.28.14-.09.28-.18.41-.28,2.08-1.46,3.75-3.47,4.78-5.83.69-1.57,1.08-3.29,1.14-5.1,0-.16.02-.31.02-.47,0-7.68-6.23-13.91-13.91-13.91-6.83,0-12.5,4.93-13.68,11.42-.15.81-.23,1.64-.23,2.49,0,.74.07,1.46.18,2.16,1.04,6.65,6.78,11.75,13.73,11.75Zm-12.91-14.14c.6.28,1.12.61,1.66.93,1.18.71,2.44,1.36,4.79,1.36,2.84,0,4.09-.96,5.53-1.81,1.12-.66,2.37-1.24,4.58-1.24,4.48,0,4.99,2.39,8.58,2.94-.16.81-.39,1.6-.69,2.35-.09.21-.19.41-.28.62l-.14-.06c-.48-.21-.93-.48-1.4-.76-1.38-.83-2.94-1.77-5.95-1.77s-4.57.94-5.94,1.77c-1.18.71-2.12,1.28-4.17,1.28s-2.98-.56-4.15-1.26l-1.95-1.17c-.28-1.01-.45-2.07-.47-3.17Zm6.57,7.32c2.21,0,3.46-.58,4.58-1.24,1.44-.84,2.69-1.81,5.53-1.81,3.54,0,4.6,1.49,6.66,2.39-.28.44-.59.85-.92,1.25-2.33,2.78-5.82,4.54-9.73,4.54-4.82,0-9-2.69-11.15-6.64,1.26.76,2.52,1.51,5.04,1.51Z"/>
  </g>
  <g>
    <polygon class="cls-1" points="202.95 31.83 199.21 40.31 194.23 40.31 194.23 31.83 202.95 31.83"/>
    <g>
      <path class="cls-1" d="m218.61,43.6c-5.7,0-10.33,4.62-10.33,10.33s4.62,10.33,10.33,10.33,10.33-4.62,10.33-10.33-4.62-10.33-10.33-10.33Zm0,16.54c-3.43,0-6.21-2.78-6.21-6.21s2.78-6.21,6.21-6.21,6.21,2.78,6.21,6.21-2.78,6.21-6.21,6.21Z"/>
      <g>
        <path class="cls-1" d="m208.21,47.94c.03-12.54,4.12-19.58,7.64-21.8.69-.44,1.36-.67,1.92-.67.26,0,.53.02.77.07,1.14.21,3.04,1.11,3.04,4.83v11.94c1.22.31,2.36.81,3.4,1.46v-25.13c0-3.68-1.55-6.73-5.86-7.31-.48-.06-1-.1-1.55-.1-.95,0-2.22.32-3.66.98-6.97,3.23-18.06,14.7-18.06,38.76,0,4.09,3.32,7.41,7.41,7.41h4.19c-.55-1.38-.86-2.87-.86-4.44,0-2.18.59-4.23,1.62-5.99Z"/>
        <path class="cls-2" d="m218.24,27.19c-.15-.03-.3-.04-.47-.04-.09,0-.42.03-1.02.41-2.38,1.5-6.29,6.95-6.79,18.06,2.19-2.28,5.25-3.7,8.65-3.7.43,0,.86.03,1.29.07v-11.63c0-1.9-.56-2.97-1.66-3.17Z"/>
      </g>
    </g>
    <path class="cls-2" d="m172.53,64.26h-4.22V9.51c0-5.24,4.27-9.51,9.51-9.51s9.51,4.27,9.51,9.51v19.47h-4.22V9.51c0-2.91-2.37-5.29-5.29-5.29s-5.29,2.37-5.29,5.29v54.75Z"/>
    <path class="cls-2" d="m192.61,38.3c-5.24,0-9.51-4.27-9.51-9.51h4.22c0,2.91,2.37,5.29,5.29,5.29v4.22Z"/>
    <path class="cls-1" d="m178.99,56.5h-17.15c-4.28,0-7.75,3.47-7.75,7.75h32.66c0-4.28-3.47-7.75-7.75-7.75Z"/>
    <rect class="cls-1" x="165.81" y="52.11" width="9.2" height="5.52"/>
  </g>
  <g>
    <path class="cls-1" d="m136.89,290.21h129.75v-92.73h-129.75v92.73Zm91.49-26.01h-23.55v-17.8h23.55v17.8Zm0-22.91h-23.55v-19.69h23.55v19.69Zm-53.22-19.69h24.56v19.69h-24.56v-19.69Zm0,24.81h24.56v17.8h-24.56v-17.8Z"/>
    <g>
      <polygon class="cls-1" points="259.58 128.13 264.44 128.13 264.44 114.65 225.33 114.65 225.33 128.13 230.2 128.13 230.2 136.33 259.58 160.05 259.58 128.13"/>
      <polygon class="cls-1" points="257.99 165.82 228.61 142.1 201.76 120.42 113.89 191.37 136.89 191.37 266.64 191.37 289.63 191.37 257.99 165.82"/>
    </g>
  </g>
</svg>