<?xml version="1.0" encoding="UTF-8"?>
<svg id="Illustration" xmlns="http://www.w3.org/2000/svg" viewBox="0 0 1830 1830">
  <defs>
    <style>
      .cls-1 {
        fill: #e2a18d;
      }

      .cls-1, .cls-2, .cls-3, .cls-4, .cls-5, .cls-6, .cls-7, .cls-8, .cls-9, .cls-10, .cls-11, .cls-12, .cls-13, .cls-14 {
        stroke-width: 0px;
      }

      .cls-2 {
        fill: #d3bba3;
      }

      .cls-3 {
        fill: #363e44;
      }

      .cls-4 {
        fill: #e0aa63;
      }

      .cls-5 {
        fill: #ffd092;
      }

      .cls-6 {
        fill: #fff;
      }

      .cls-7 {
        fill: #776e42;
      }

      .cls-8 {
        fill: #e6d0be;
      }

      .cls-9 {
        fill: #efbc73;
      }

      .cls-10 {
        fill: #8b865c;
      }

      .cls-11 {
        fill: #f7f1eb;
      }

      .cls-12 {
        fill: #d87355;
      }

      .cls-13 {
        fill: #f2e6dc;
      }

      .cls-14 {
        fill: #9e9569;
      }
    </style>
  </defs>
  <g id="Painter_services" data-name="Painter services">
    <circle class="cls-13" cx="915" cy="915" r="915"/>
    <g>
      <g>
        <path class="cls-8" d="m1687.23,625.41h-455.63v489.01h0c0,.08,0,.17,0,.25,0,44.63,102,80.8,227.81,80.8s227.81-36.18,227.81-80.8c0-.08,0-.17,0-.25h0v-489.01Z"/>
        <ellipse class="cls-2" cx="1459.41" cy="625.42" rx="227.81" ry="80.8"/>
        <path class="cls-3" d="m1479.55,707.22c-60.96,0-118.29-8.43-161.42-23.72-43.46-15.41-67.39-36.04-67.39-58.08s23.93-42.67,67.39-58.08c43.13-15.3,100.46-23.72,161.42-23.72s118.29,8.43,161.42,23.72c43.46,15.41,67.39,36.04,67.39,58.08s-23.93,42.66-67.39,58.08c-43.13,15.3-100.46,23.72-161.42,23.72Zm0-161.61c-125.07,0-226.81,35.8-226.81,79.8s101.75,79.8,226.81,79.8,226.82-35.8,226.82-79.8-101.75-79.8-226.82-79.8Z"/>
        <path class="cls-10" d="m1231.6,947.56c0,44.63,102,80.8,227.81,80.8s227.81-36.18,227.81-80.8v-161.07c0,44.63-102,80.8-227.81,80.8s-227.81-36.18-227.81-80.8v161.07Z"/>
        <ellipse class="cls-10" cx="1460.27" cy="625.42" rx="178.76" ry="52.26"/>
        <path class="cls-3" d="m1516.57,1195.42c-.53,0-.97-.41-1-.94-.03-.55.39-1.02.94-1.06,52.61-3.05,100.78-12.67,135.65-27.09,34.95-14.45,54.2-32.8,54.2-51.65v-.23c-.01-.05,0-.11,0-.16v-488.87c0-.55.45-1,1-1s1,.45,1,1v489.01s0,.06,0,.1c0,.07,0,.11,0,.16,0,40.34-80.63,74.3-191.73,80.74-.02,0-.04,0-.06,0Z"/>
        <path class="cls-3" d="m1251.73,1003.09c-.55,0-1-.45-1-1v-376.68c0-.55.45-1,1-1s1,.45,1,1v376.68c0,.55-.45,1-1,1Z"/>
      </g>
      <g>
        <path class="cls-2" d="m1810.41,912.45l-282.4,97.17,7.27,21.13c11.4,33.12,47.48,50.73,80.6,39.33l61.56-21.18,42.48,168.27c5.09,20.16,26.33,31.65,45.99,24.89,19.66-6.76,29.33-28.89,20.94-47.92l-70.05-158.78,61.56-21.18c33.12-11.4,50.73-47.48,39.33-80.6l-7.27-21.13Z"/>
        <polygon class="cls-9" points="1544.65 834.27 1566.15 924.21 1522.29 841.97 1456.9 864.46 1527.98 1009.63 1810.45 912.44 1777.15 754.27 1544.65 834.27"/>
        <path class="cls-6" d="m1754.37,1244.99c-6.02,0-12.01-1.48-17.4-4.39-8.96-4.85-15.53-13.3-18.02-23.17l-42.21-167.21-60.53,20.83c-33.59,11.56-70.31-6.37-81.87-39.95l-7.27-21.13c-.18-.52.1-1.09.62-1.27l282.4-97.17c.52-.18,1.09.1,1.27.62l7.27,21.13c11.56,33.59-6.37,70.31-39.95,81.87l-60.53,20.83,69.61,157.78c4.11,9.32,4.13,20.02.05,29.36-4.08,9.34-11.94,16.59-21.58,19.91-3.85,1.32-7.86,1.98-11.86,1.98Zm-76.93-197.08c.16,0,.33.04.48.12.25.13.43.36.49.63l42.48,168.27c2.36,9.34,8.57,17.32,17.04,21.91,8.47,4.58,18.55,5.42,27.66,2.28,9.11-3.13,16.54-9.99,20.4-18.82,3.86-8.82,3.84-18.94-.05-27.75l-70.05-158.78c-.11-.26-.11-.55,0-.8.11-.26.33-.45.59-.55l61.56-21.18c32.54-11.2,49.91-46.78,38.71-79.33l-6.95-20.19-280.51,96.52,6.95,20.19c11.2,32.54,46.78,49.91,79.33,38.71l61.56-21.18c.11-.04.22-.05.33-.05Z"/>
        <path class="cls-4" d="m1645.67,912.3c-.47,0-.89-.34-.98-.82l-19.62-105.04c-.1-.54.26-1.07.8-1.17.54-.1,1.07.26,1.17.8l19.62,105.04c.1.54-.26,1.06-.8,1.17-.06.01-.12.02-.18.02Z"/>
        <path class="cls-4" d="m1673.54,867.75c-.47,0-.89-.34-.98-.82l-13.49-72.19c-.1-.54.26-1.07.8-1.17.54-.1,1.07.26,1.17.8l13.49,72.19c.1.54-.26,1.07-.8,1.17-.06.01-.12.02-.18.02Z"/>
      </g>
    </g>
    <g>
      <rect class="cls-8" x="159.66" y="282.82" width="357.12" height="718.41"/>
      <rect class="cls-6" x="187.4" y="311.26" width="315.71" height="661.53"/>
      <rect class="cls-8" x="516.77" y="282.82" width="358.68" height="718.41"/>
      <rect class="cls-6" x="531.29" y="311.26" width="317.82" height="661.53"/>
      <polygon class="cls-11" points="503.11 643.94 187.4 972.79 187.4 639.84 503.11 311.26 503.11 643.94"/>
      <polygon class="cls-11" points="849.11 643.94 531.29 972.79 531.29 639.84 849.11 311.26 849.11 643.94"/>
    </g>
    <g>
      <g>
        <path class="cls-2" d="m926.36,1751.94h-72.76c-.55,0-1-.45-1-1v-35.49c0-.55.45-1,1-1s1,.45,1,1v34.49h71.76c.55,0,1,.45,1,1s-.45,1-1,1Z"/>
        <path class="cls-2" d="m853.6,1565.78c-.55,0-1-.45-1-1v-536.03c0-.55.45-1,1-1h264.62c.55,0,1,.45,1,1v112.18c0,.55-.45,1-1,1s-1-.45-1-1v-111.18h-262.62v535.03c0,.55-.45,1-1,1Z"/>
        <rect class="cls-2" x="887.93" y="1067.2" width="195.96" height="133.06"/>
        <rect class="cls-8" x="887.93" y="1217.98" width="195.96" height="133.06"/>
        <rect class="cls-6" x="887.93" y="1368.76" width="195.96" height="133.06"/>
      </g>
      <g>
        <path class="cls-2" d="m900.49,1716.45c-.16,0-.33-.04-.48-.13l-68.08-37.77c-.23-.13-.4-.34-.48-.6-.07-.26-.04-.53.09-.76l26.34-47.46c.27-.48.88-.66,1.36-.39.48.27.66.88.39,1.36l-25.85,46.59,67.2,37.29c.48.27.66.88.39,1.36-.18.33-.52.51-.88.51Z"/>
        <path class="cls-2" d="m1063.8,1807.07c-.17,0-.34-.04-.49-.13l-11.21-6.22c-.48-.27-.66-.88-.39-1.36.27-.48.88-.66,1.36-.39l10.33,5.73,13.87-25c.27-.48.87-.66,1.36-.39.48.27.66.88.39,1.36l-14.35,25.87c-.13.23-.34.4-.6.48-.09.03-.18.04-.28.04Z"/>
        <path class="cls-2" d="m900.49,1555.99c-.16,0-.33-.04-.48-.13-.48-.27-.66-.88-.39-1.36l282.32-508.8c.27-.48.87-.66,1.36-.39l231.39,128.39c.48.27.66.88.39,1.36l-54.77,98.71c-.27.48-.88.66-1.36.39-.48-.27-.66-.88-.39-1.36l54.29-97.84-229.64-127.42-281.84,507.93c-.18.33-.52.51-.88.51Z"/>
        <rect class="cls-7" x="1149.59" y="1135.65" width="195.96" height="133.06" transform="translate(739.97 -454.33) rotate(29.02)"/>
        <rect class="cls-10" x="1076.44" y="1267.49" width="195.96" height="133.06" transform="translate(794.75 -402.27) rotate(29.02)"/>
        <rect class="cls-14" x="1003.28" y="1399.33" width="195.96" height="133.06" transform="translate(849.53 -350.22) rotate(29.02)"/>
      </g>
      <g>
        <path class="cls-6" d="m1460.95,1217.98l-612.78,382.17,140.04,224.54,612.78-382.17-140.03-224.54Z"/>
        <path class="cls-2" d="m1474.61,1522.33c-.33,0-.66-.17-.85-.47-.29-.47-.15-1.09.32-1.38l125.53-78.29-138.98-222.84-55.26,34.46c-.47.29-1.09.15-1.38-.32-.29-.47-.15-1.09.32-1.38l56.11-34.99c.47-.29,1.09-.15,1.38.32l140.04,224.54c.14.23.19.5.13.75-.06.26-.22.48-.45.62l-126.38,78.82c-.16.1-.35.15-.53.15Z"/>
        <rect class="cls-4" x="1343.91" y="1319.27" width="195.96" height="133.06" transform="translate(1854.73 -571) rotate(58.05)"/>
        <rect class="cls-9" x="1215.98" y="1399.06" width="195.96" height="133.06" transform="translate(1862.19 -424.88) rotate(58.05)"/>
        <rect class="cls-5" x="1088.04" y="1478.85" width="195.96" height="133.06" transform="translate(1869.66 -278.76) rotate(58.05)"/>
      </g>
    </g>
    <path class="cls-9" d="m1151.02,30.79v-.05c-3.44-.92-6.89-1.79-10.35-2.67-.72-.18-1.43-.38-2.15-.56h0C1066.99,9.56,992.11,0,915,0c-9.05,0-18.06.19-27.04.45v-.04c-2.33.07-4.64.19-6.96.27-1.84.07-3.69.1-5.53.18v.04c-91.84,3.9-180.18,21.3-263.06,50.34v169.69l263.06-20.93v196.3l263.06-62.78v172.39l275.56-65.77V147.99c-79.91-52.1-168.48-92.01-263.06-117.19Z"/>
    <g>
      <g>
        <path class="cls-9" d="m716.91,1829.94h183.34c16.68-194.28-4.95-460.08-164.73-731.06l-363.46-5.81,149.93,227.98s154.93,169.07,194.92,508.89Z"/>
        <path class="cls-9" d="m513.63,1829.94c133.96-374.64,99.64-712.51,99.64-712.51l-207.83-12.2c-70.7,135.3-79.85,478.59-75.54,724.7h183.73Z"/>
        <path class="cls-5" d="m848.39,1351c-11.63,8.61-20.91,20.25-23.85,32.72-8.24,35,37.77,58.22,27.85,92.13-8.36,28.59-45.41,26.94-51.42,55.71-4.89,23.39,13.53,53.69,34.28,57.85,20.22,4.05,41.47-16.95,57.75-41.34-8.84-63.16-23.13-129.23-44.62-197.06Z"/>
        <path class="cls-10" d="m412.45,1549.42c-19.12-6.31-35.97,8.71-44.28,1.43-11.19-9.8,19.16-43.41,12.86-78.56-3.87-21.6-21.43-42.88-40.81-54.58-7.32,88.62-10.42,183.73-11.08,274.06,15.19,5.91,30.65,7.59,41.88.49,17.35-10.97,24.11-42.6,17.14-65.71-5.49-18.18-17.89-25.84-14.28-32.85,6.29-12.24,40.95,16.19,55.71-8.57,5.35-8.98,1.62-29.52-17.14-35.71Z"/>
        <path class="cls-3" d="m603.31,1446.85c-.36,0-.71-.2-.89-.54-13.47-25.94-27.82-50.46-42.63-72.89-.3-.46-.18-1.08.28-1.39.46-.3,1.08-.18,1.38.28,14.85,22.49,29.23,47.07,42.74,73.07.25.49.06,1.09-.43,1.35-.15.08-.3.11-.46.11Z"/>
        <path class="cls-5" d="m596.31,1197.33l128.18-22.87,11.21,62.82c6.32,35.4-17.26,69.21-52.65,75.53-35.4,6.32-69.21-17.26-75.53-52.65l-11.21-62.82Z"/>
      </g>
      <g>
        <g>
          <path class="cls-5" d="m1098.11,274.8c-.1.05-.2.1-.3.15h0s-209.91,94.53-209.91,94.53l40.47,89.87,209.91-94.54h0c.1-.06.21-.09.31-.14,14.17-6.38,16.59-31.67,5.41-56.49-11.18-24.82-31.72-39.76-45.89-33.38Z"/>
          <ellipse class="cls-4" cx="908.13" cy="414.41" rx="28.13" ry="49.28" transform="translate(-90.07 409.49) rotate(-24.25)"/>
          <path class="cls-3" d="m1138.53,611.99c-.38,0-.75-.22-.91-.59l-68-150.97-158.07,31.38c-.45.09-.92-.15-1.11-.57l-29.16-64.74c-.23-.5,0-1.1.5-1.32l25.93-11.68c.51-.23,1.1,0,1.32.5.23.5,0,1.1-.5,1.32l-25.02,11.27,28.42,63.1,158.07-31.38c.46-.09.92.15,1.11.57l68.32,151.7c.23.5,0,1.1-.5,1.32-.13.06-.27.09-.41.09Z"/>
          <rect class="cls-3" x="1122.53" y="516.79" width="26.21" height="169.08" transform="translate(-146.77 519.41) rotate(-24.25)"/>
        </g>
        <g>
          <path class="cls-1" d="m828.07,765.68c156.95,33.24,237.62,71.3,220.19,129.68-10.11,33.86-104.29,50.55-229.51,30.88,2.77-50.62,4.62-99.38,9.32-160.56Z"/>
          <path class="cls-1" d="m1142.62,716.72c-26.9,59.21-68.85,155.45-103.87,192.19-25.74-50.43-75.85-62.63-101.59-113.06,16.22-30.42,60.02-102.29,94.61-155.79l110.85,76.66Z"/>
          <path class="cls-3" d="m1012.87,829.83c-.18,0-.37-.05-.54-.16-24.17-15.4-60.13-29.48-109.94-43.05-.53-.15-.85-.69-.7-1.23.14-.53.7-.85,1.23-.7,50.01,13.62,86.15,27.78,110.49,43.29.47.3.6.91.31,1.38-.19.3-.51.46-.84.46Z"/>
          <path class="cls-9" d="m1135.15,759.19c7.75-24.31,21.76-73.58,26.49-82.17,10.72-19.48,37.24-56.29,45.92-68.84,4.73-6.84,2.35-16.69-3.61-21.99-5.8-5.14-14.6-3.52-16.91-2.84,2.04-6.83.91-14.62-6.05-20.45-6.18-5.17-16.23-2.2-17.15-1.9.15-.96,5.22-9.63-2.49-18.66-5.21-6.1-13.61-5.73-16.39-5.07,4.6-7.97-.5-17.28-8.7-19.65-19.95-5.76-49.46,39.93-89.65,99.91-4.84,7.23-40.74,51.33-45.75,59.08l134.31,82.57Z"/>
          <path class="cls-3" d="m1169.79,591c-.26,0-.51-.1-.71-.29l-11.4-11.4c-.39-.39-.39-1.02,0-1.41.39-.39,1.02-.39,1.41,0l11.4,11.4c.39.39.39,1.02,0,1.41-.2.2-.45.29-.71.29Z"/>
          <path class="cls-3" d="m1193.58,612.82c-.24,0-.49-.09-.68-.27l-10.59-9.88c-.4-.38-.43-1.01-.05-1.41.38-.4,1.01-.43,1.41-.05l10.59,9.88c.4.38.43,1.01.05,1.41-.2.21-.46.32-.73.32Z"/>
          <path class="cls-3" d="m1120.58,548.76c-.23,0-.47-.08-.66-.25l-8.57-7.5c-.42-.36-.46-1-.09-1.41.36-.42,1-.46,1.41-.09l8.57,7.5c.42.36.46,1,.09,1.41-.2.23-.47.34-.75.34Z"/>
          <path class="cls-3" d="m1144.15,567.33c-.25,0-.49-.09-.69-.27l-11.46-10.85c-.4-.38-.42-1.01-.04-1.41.38-.4,1.01-.42,1.41-.04l11.46,10.85c.4.38.42,1.01.04,1.41-.2.21-.46.31-.73.31Z"/>
        </g>
        <path class="cls-1" d="m281.83,810.88c-160.79,115.59-234.48,195.73-190.09,244.26,25.75,28.15,141.08-2.57,272.3-88.02-24.73-48.59-50.82-98.24-82.21-156.24Z"/>
        <path class="cls-10" d="m236.53,815.36s156.25-80.68,305.76-86.07c127.43-4.59,333.16,45.2,333.16,45.2v201.43l-83.97,7.05,16.16,112.19-459.76,23.35-8.98-94.2-49.84,10.74-52.53-219.69Z"/>
        <g>
          <polygon class="cls-9" points="677.18 1122.52 635.12 1122.52 376.45 759.93 409.04 747.45 677.18 1122.52"/>
          <polygon class="cls-9" points="441.5 1122.2 483.42 1118.7 711.04 742.44 677.52 732.7 441.5 1122.2"/>
        </g>
        <path class="cls-3" d="m749.55,985.49c-.54,0-.98-.42-1-.96-.02-.55.41-1.02.96-1.04l41.93-1.52c.52-.02,1.02.41,1.04.96.02.55-.41,1.02-.96,1.04l-41.93,1.52s-.02,0-.04,0Z"/>
        <g>
          <path class="cls-1" d="m169.99,924.17s0,0,.01,0c115.2,88.37,198.63,148.86,223.65,168.55,2.62,2.06,7.26,5.68,11.79,11.84,16.8,22.83,5.19,43.99,11.89,76.05,7.61,36.38,32.49,52.56,26.64,60.03-4.07,5.2-15.18,1.74-33.41-12.99,0,0,0,0,0,0,12.57,12.78,28.86,30.86,21.77,37.79-8.61,7.56-30.24-11.44-42.76-23.57,15.16,14.68,18.83,27.03,13.92,29.9-7.73,4.53-22.14-4.12-41.42-24.3,0,0,0,0,0,0,9.42,17.66,9.08,23.34,4.11,24.83-9.06,2.71-24.6-14.18-36.05-31.22-12.89-19.18-16.23-38.53-18.05-50.78,0,0,0,0,0,0-87.1-53.53-144.35-89.42-215.57-131.22-14.57-8.55,34.2-97.73,73.49-134.91Z"/>
          <path class="cls-3" d="m283.03,1010.83c-.21,0-.42-.06-.6-.2-35.23-26.4-67.96-51.17-100.08-75.74-.44-.34-.52-.96-.19-1.4.34-.44.96-.52,1.4-.19,32.12,24.56,64.85,49.33,100.07,75.73.44.33.53.96.2,1.4-.2.26-.5.4-.8.4Z"/>
          <path class="cls-3" d="m410.08,1229.29c-.59,0-1.18-.24-1.61-.7-3.5-3.79-6.48-8.03-8.87-12.6-2.3-4.43-4.03-9.13-5.13-14-.27-1.18.47-2.35,1.65-2.62,1.18-.27,2.35.47,2.62,1.65,1.02,4.5,2.62,8.85,4.75,12.94,2.2,4.23,4.96,8.15,8.2,11.65.82.89.77,2.28-.12,3.1-.42.39-.95.58-1.49.58Z"/>
          <path class="cls-3" d="m390.64,1243.72c-.51,0-1.03-.18-1.44-.54-4.48-3.92-8.41-8.41-11.68-13.35-3.17-4.78-5.7-9.95-7.53-15.38-.39-1.15.23-2.39,1.38-2.78,1.15-.39,2.39.23,2.78,1.38,1.71,5.07,4.07,9.9,7.03,14.36,3.06,4.61,6.73,8.81,10.92,12.47.91.8,1,2.18.21,3.09-.43.5-1.04.75-1.65.75Z"/>
        </g>
      </g>
      <g>
        <circle class="cls-12" cx="621.46" cy="644.43" r="21.55" transform="translate(-197.37 282.46) rotate(-22.19)"/>
        <path class="cls-1" d="m633.25,598.06c-12.35-34.62-22.6-53.72-42.9-63.23-27.29-12.79-56.53,2.89-59.56,4.57-1.93,1.07-30.34,14.69-35.07,46.03-4.67,30.95,7.22,63.3,31.95,82.02v62.6c0,22.2,78.85,22.89,78.85.69v-40.33c14.94,1.1,30.2-1.6,36.27-12.39,7.39-13.14,5-39.18-9.54-79.96Z"/>
        <path class="cls-3" d="m499.79,546.1c-20.04,21.61-26.87,51.92-17.51,78.57,11.28,32.1,40.85,44.06,45.35,45.8,6.45-.92,13.04-1.96,19.75-3.14,12.88-2.26,14.52-4.13,17.55-9.94,3-5.75,2.11-11.39.86-21.94-1.37-11.56,7.16-24.47,19.17-24.92,7.63-.29,47.82-44.5,28.18-75.27-13.24-20.74-82.13-21.07-113.35,10.84Z"/>
        <path class="cls-3" d="m579.29,641.67c-.32,0-.64-.15-.83-.44-2.84-4.22-3.85-9.1-2.77-13.4.71-2.82,2.28-5.06,4.32-6.14,3.09-1.64,7.71-.76,11.77,2.22.44.33.54.95.21,1.4-.33.44-.95.54-1.4.21-3.39-2.49-7.27-3.32-9.65-2.06-1.54.81-2.75,2.58-3.32,4.85-.94,3.75-.03,8.05,2.49,11.8.31.46.19,1.08-.27,1.39-.17.12-.37.17-.56.17Z"/>
        <path class="cls-3" d="m555.29,1172.32c-12.23-88.92-89.39-117.36-82.85-191.4,4.87-55.06,48.81-53.79,54.28-111.41,7.09-74.77-64.65-100.63-59.99-182.83,3.28-57.83,41.3-89.46,28.99-101.24-13.18-12.61-72.91,8.18-97.55,52.68-31.87,57.55,24.54,101.33,0,177.12-20.21,62.43-65.23,53.55-88.56,119.98-22.77,64.85,12.54,94.9-2.86,165.69-7.36,33.83-27.47,82.34-88.56,134.27,28.39,6.05,56.77,12.09,85.16,18.14,40.82-22.83,63.09-81.45,67.74-115.44,4.99-36.44-6.22-141.15-6.22-141.15,0,0,22.64,84.73,22.64,138.77,0,59-36.99,106.15-53.59,124.34,36.72,7.82,73.44,15.64,110.17,23.46,50.3-40.63,50.62-129.7,50.62-129.7,10.79,70.64-13.98,113.98-30.31,134.02,20.77,4.42,41.54,8.85,62.32,13.27,17.57-31.79,35.61-77.33,28.57-128.56Z"/>
        <path class="cls-3" d="m589.48,657.24c-25.3,0-30.83-25.5-30.88-25.76-.11-.54.24-1.07.78-1.18.54-.11,1.07.24,1.18.78.21,1.01,5.28,24.17,28.9,24.17.55,0,1.12-.01,1.69-.04.51-.03,1.02.4,1.04.95.03.55-.4,1.02-.95,1.04-.59.03-1.18.04-1.76.04Z"/>
        <path class="cls-3" d="m606.51,691.41c-.53,0-.97-.41-1-.94l-.75-13.22c-.03-.55.39-1.02.94-1.05.54-.03,1.02.39,1.05.94l.75,13.22c.03.55-.39,1.02-.94,1.05-.02,0-.04,0-.06,0Z"/>
      </g>
    </g>
  </g>
</svg>