<?xml version="1.0" encoding="utf-8"?>
<!-- Generator: Adobe Illustrator 27.9.0, SVG Export Plug-In . SVG Version: 6.00 Build 0)  -->
<svg version="1.1" id="Layer_1" xmlns="http://www.w3.org/2000/svg" xmlns:xlink="http://www.w3.org/1999/xlink" x="0px" y="0px"
	 viewBox="0 0 2500 2500" style="enable-background:new 0 0 2500 2500;" xml:space="preserve">
<style type="text/css">
	.st0{fill:#F2E6DC;}
	.st1{fill:#EFBC73;}
	.st2{fill:#E0AA63;}
	.st3{fill:#F7F1EB;}
	.st4{fill:#FFD092;}
	.st5{fill:#FFFFFF;}
	.st6{fill:#E6D0BE;}
	.st7{fill:#D87355;}
	.st8{fill:#D3BBA3;}
	.st9{fill:#363E44;}
	.st10{fill:#9E6C5A;}
	.st11{fill:#8B865C;}
</style>
<g id="Illustration">
	<g id="Shipping_information_1_">
		<circle class="st0" cx="1289.7" cy="1500.6" r="995.2"/>
		<g>
			<g>
				<rect x="1515" y="1908.4" class="st1" width="748.2" height="554.8"/>
				<path class="st2" d="M1700.1,2432.1c-0.6,0-1.1-0.5-1.1-1.1v-490.4c0-0.6,0.5-1.1,1.1-1.1c0.6,0,1.1,0.5,1.1,1.1V2431
					C1701.2,2431.6,1700.7,2432.1,1700.1,2432.1z"/>
				<path class="st2" d="M2034.2,2432.1c-0.6,0-1.1-0.5-1.1-1.1v-326.2c0-0.6,0.5-1.1,1.1-1.1c0.6,0,1.1,0.5,1.1,1.1V2431
					C2035.3,2431.6,2034.8,2432.1,2034.2,2432.1z"/>
				<g>
					<path class="st3" d="M2105.1,2086.1c-0.3,0-0.6-0.1-0.8-0.3l-37.6-37.7l-31.4,31.5c-0.4,0.4-1.1,0.4-1.5,0l-32.4-32.5
						l-37.2,37.3c-0.3,0.3-0.8,0.4-1.2,0.2c-0.4-0.2-0.7-0.6-0.7-1v-167.9c0-0.6,0.5-1.1,1.1-1.1s1.1,0.5,1.1,1.1V2081l36.1-36.2
						c0.4-0.4,1.1-0.4,1.5,0l32.4,32.5l31.4-31.5c0.4-0.4,1.1-0.4,1.5,0l36.5,36.6v-166.7c0-0.6,0.5-1.1,1.1-1.1
						c0.6,0,1.1,0.5,1.1,1.1v169.3c0,0.4-0.3,0.8-0.7,1C2105.4,2086.1,2105.3,2086.1,2105.1,2086.1z"/>
				</g>
			</g>
			<g>
				<rect x="1718.6" y="1549.8" class="st2" width="483.4" height="358.5"/>
				<path class="st1" d="M1838.2,1888.5c-0.6,0-1.1-0.5-1.1-1.1v-316.8c0-0.6,0.5-1.1,1.1-1.1s1.1,0.5,1.1,1.1v316.8
					C1839.3,1888,1838.8,1888.5,1838.2,1888.5z"/>
				<path class="st1" d="M2054.1,1888.5c-0.6,0-1.1-0.5-1.1-1.1v-210.8c0-0.6,0.5-1.1,1.1-1.1c0.6,0,1.1,0.5,1.1,1.1v210.8
					C2055.2,1888,2054.7,1888.5,2054.1,1888.5z"/>
				<g>
					<path class="st3" d="M2099.9,1665c-0.3,0-0.6-0.1-0.8-0.3l-24-24.1l-20,20.1c-0.4,0.4-1.1,0.4-1.5,0l-20.7-20.7l-23.8,23.8
						c-0.3,0.3-0.8,0.4-1.2,0.2c-0.4-0.2-0.7-0.6-0.7-1v-108.5c0-0.6,0.5-1.1,1.1-1.1c0.6,0,1.1,0.5,1.1,1.1v105.8l22.7-22.7
						c0.4-0.4,1.1-0.4,1.5,0l20.7,20.7l20-20.1c0.4-0.4,1.1-0.4,1.5,0l22.9,23v-106.7c0-0.6,0.5-1.1,1.1-1.1c0.6,0,1.1,0.5,1.1,1.1
						v109.4c0,0.4-0.3,0.8-0.7,1C2100.2,1665,2100,1665,2099.9,1665z"/>
				</g>
			</g>
		</g>
		<g>
			<g>
				<polygon class="st2" points="1737.7,1510 1461.3,1510 1498,597.3 1737.7,742.8 				"/>
				<rect x="1084.4" y="597.3" class="st4" width="413.6" height="912.7"/>
				<rect x="1732.8" y="597.3" class="st4" width="413.6" height="912.7"/>
				<polygon class="st5" points="1133.6,1460.7 1133.6,646.5 1498,646.5 1518.6,668.1 1563.8,1460.7 				"/>
				<polygon class="st0" points="1737.7,1460.7 1498,1460.7 1498,646.5 1737.7,792.1 				"/>
				<path class="st6" d="M1732.2,962.8c-0.2,0-0.4-0.1-0.6-0.2l-234.8-144.3h-363.3c-0.6,0-1.1-0.5-1.1-1.1s0.5-1.1,1.1-1.1h363.6
					c0.2,0,0.4,0.1,0.6,0.2l235,144.4c0.5,0.3,0.7,1,0.4,1.5C1732.9,962.6,1732.6,962.8,1732.2,962.8z"/>
				<path class="st6" d="M1732,1356c-0.3,0-0.6-0.1-0.8-0.3l-233.7-236.9h-273.7c-0.6,0-1.1-0.5-1.1-1.1V646.5
					c0-0.6,0.5-1.1,1.1-1.1c0.6,0,1.1,0.5,1.1,1.1v470h273c0.3,0,0.6,0.1,0.8,0.3l234,237.2c0.4,0.4,0.4,1.1,0,1.5
					C1732.5,1355.9,1732.2,1356,1732,1356z"/>
				<path class="st6" d="M1272.6,1457.4c-0.3,0-0.6-0.1-0.8-0.3c-0.4-0.4-0.4-1.1,0-1.5l88.8-88.8V934.9h-224.1
					c-0.6,0-1.1-0.5-1.1-1.1s0.5-1.1,1.1-1.1h225.2c0.6,0,1.1,0.5,1.1,1.1v433.3c0,0.3-0.1,0.6-0.3,0.8l-89.2,89.2
					C1273.2,1457.3,1272.9,1457.4,1272.6,1457.4z"/>
				<path class="st6" d="M1617.8,1457.4c-0.6,0-1.1-0.5-1.1-1.1v-455.6c0-0.3,0.1-0.5,0.3-0.7l115-129.3c0.4-0.5,1.1-0.5,1.5-0.1
					c0.4,0.4,0.5,1.1,0.1,1.5l-114.7,129v455.2C1618.9,1456.9,1618.4,1457.4,1617.8,1457.4z"/>
				<path class="st6" d="M1563.8,913.6c-0.1,0-0.3,0-0.4-0.1c-0.4-0.2-0.7-0.6-0.7-1V690.6c0-0.6,0.5-1.1,1.1-1.1s1.1,0.5,1.1,1.1
					v219.2l134.5-134.5c0.4-0.4,1.1-0.4,1.5,0c0.4,0.4,0.4,1.1,0,1.5l-136.3,136.3C1564.4,913.4,1564.1,913.6,1563.8,913.6z"/>
				<rect x="1732.8" y="646.5" class="st5" width="364.4" height="814.2"/>
				<path class="st6" d="M2005.9,1457.4c-0.6,0-1.1-0.5-1.1-1.1v-245.6l-156.3-156.3c-0.2-0.2-0.3-0.5-0.3-0.8V646.5
					c0-0.6,0.5-1.1,1.1-1.1c0.6,0,1.1,0.5,1.1,1.1v406.6l156.3,156.3c0.2,0.2,0.3,0.5,0.3,0.8v246
					C2007,1456.9,2006.5,1457.4,2005.9,1457.4z"/>
				<path class="st6" d="M1900.2,1256.6h-167.3c-0.6,0-1.1-0.5-1.1-1.1c0-0.6,0.5-1.1,1.1-1.1h166.9l198.9-198.9
					c0.4-0.4,1.1-0.4,1.5,0c0.4,0.4,0.4,1.1,0,1.5l-199.2,199.2C1900.7,1256.5,1900.4,1256.6,1900.2,1256.6z"/>
				<path class="st6" d="M2097.2,882.4H1951c-0.6,0-1.1-0.5-1.1-1.1V646.5c0-0.6,0.5-1.1,1.1-1.1s1.1,0.5,1.1,1.1v233.6h145.1
					c0.6,0,1.1,0.5,1.1,1.1C2098.3,881.9,2097.8,882.4,2097.2,882.4z"/>
			</g>
			<g>
				<path class="st7" d="M1295.3,527.8c106.1,0,192,86,192,192c0,106.1-192,340.1-192,340.1s-192-234-192-340.1
					C1103.3,613.8,1189.3,527.8,1295.3,527.8z"/>
				<ellipse class="st0" cx="1295.3" cy="719.9" rx="131.4" ry="131.4"/>
			</g>
		</g>
		<g>
			<g>
				<path class="st8" d="M1034,1344.7H518.4c-0.6,0-1.1-0.5-1.1-1.1V721c0-0.6,0.5-1.1,1.1-1.1h362c0.4,0,0.7,0.2,0.9,0.5l61.7,91.7
					l91.7,61.1c0.3,0.2,0.5,0.5,0.5,0.9v469.5C1035.1,1344.2,1034.6,1344.7,1034,1344.7z M519.4,1342.5h513.5V874.7l-91.4-60.9
					c-0.1-0.1-0.2-0.2-0.3-0.3l-61.5-91.4H519.4V1342.5z"/>
				<g>
					<polygon class="st5" points="880.3,874.1 1033.6,874.1 880.3,720.8 					"/>
					<path class="st8" d="M1033.6,875.2H880.3c-0.6,0-1.1-0.5-1.1-1.1V720.8c0-0.4,0.3-0.8,0.7-1c0.4-0.2,0.9-0.1,1.2,0.2
						l153.3,153.3c0.3,0.3,0.4,0.8,0.2,1.2C1034.4,874.9,1034,875.2,1033.6,875.2z M881.4,873H1031L881.4,723.5V873z"/>
				</g>
			</g>
			<g>
				<g>
					<polygon class="st5" points="322.9,1457.3 838.6,1457.3 838.6,987.8 746.7,926.6 684.9,834.7 322.9,834.7 					"/>
					<path class="st8" d="M838.6,1458.4H322.9c-0.6,0-1.1-0.5-1.1-1.1V834.7c0-0.6,0.5-1.1,1.1-1.1h362c0.4,0,0.7,0.2,0.9,0.5
						l61.7,91.7l91.7,61.1c0.3,0.2,0.5,0.5,0.5,0.9v469.5C839.7,1457.9,839.2,1458.4,838.6,1458.4z M324,1456.2h513.5V988.4
						l-91.4-60.9c-0.1-0.1-0.2-0.2-0.3-0.3l-61.5-91.4H324V1456.2z"/>
				</g>
				<g>
					<path class="st8" d="M766.1,1090.6H583.8c-0.6,0-1.1-0.5-1.1-1.1c0-0.6,0.5-1.1,1.1-1.1h182.3c0.6,0,1.1,0.5,1.1,1.1
						C767.2,1090.1,766.7,1090.6,766.1,1090.6z"/>
					<path class="st8" d="M544,1090.6H439.5c-0.6,0-1.1-0.5-1.1-1.1c0-0.6,0.5-1.1,1.1-1.1H544c0.6,0,1.1,0.5,1.1,1.1
						C545.1,1090.1,544.6,1090.6,544,1090.6z"/>
					<path class="st8" d="M766.1,1163.5h-91.6c-0.6,0-1.1-0.5-1.1-1.1c0-0.6,0.5-1.1,1.1-1.1h91.6c0.6,0,1.1,0.5,1.1,1.1
						C767.2,1163,766.7,1163.5,766.1,1163.5z"/>
					<path class="st8" d="M634.7,1163.5H439.5c-0.6,0-1.1-0.5-1.1-1.1c0-0.6,0.5-1.1,1.1-1.1h195.2c0.6,0,1.1,0.5,1.1,1.1
						C635.8,1163,635.3,1163.5,634.7,1163.5z"/>
					<path class="st8" d="M706.4,1236.3H439.5c-0.6,0-1.1-0.5-1.1-1.1c0-0.6,0.5-1.1,1.1-1.1h266.9c0.6,0,1.1,0.5,1.1,1.1
						C707.5,1235.9,707,1236.3,706.4,1236.3z"/>
				</g>
				<polygon class="st6" points="684.9,987.8 838.2,987.8 684.9,834.5 				"/>
			</g>
		</g>
		<g>
			<g>
				<g>
					<polygon class="st9" points="1237.2,2472.8 1141.7,2108.4 657.3,2127.5 635.7,2472.8 914.6,2472.8 919.4,2381.7 986.9,2472.8 
											"/>
					<path class="st6" d="M919.4,2382.8c-0.4,0-0.7-0.2-0.9-0.5l-45-69.5c-0.3-0.5-0.2-1.2,0.3-1.5c0.5-0.3,1.2-0.2,1.5,0.3l45,69.5
						c0.3,0.5,0.2,1.2-0.3,1.5C919.8,2382.8,919.6,2382.8,919.4,2382.8z"/>
				</g>
				<g>
					<path class="st9" d="M991.5,1361c-4,0-8.2-1.3-12.3-3.7c-6.7-4-12.4-10.7-16.2-18.9c-7.8-17.1-4.6-35.4,7.3-40.9
						c5.8-2.7,12.8-1.9,19.6,2.2c6.7,4,12.4,10.7,16.2,18.9l0,0c7.8,17.1,4.6,35.4-7.3,40.9C996.5,1360.5,994,1361,991.5,1361z
						 M977.6,1298.1c-2.2,0-4.4,0.5-6.4,1.4c-10.8,5-13.6,22-6.3,38c3.6,7.8,9,14.2,15.3,18c6.2,3.7,12.4,4.4,17.6,2.1
						c10.8-5,13.6-22,6.3-38c-3.6-7.8-9-14.2-15.3-18C985,1299.2,981.2,1298.1,977.6,1298.1z"/>
					<path class="st10" d="M975.2,1326.2c-21.4-46.8-38.1-72.2-67.6-83c-39.6-14.5-78.5,10.9-82.5,13.6
						c-2.6,1.7-40.5,24.2-43.3,68.5c-2.7,43.8,17.8,87.4,54.6,110.5l8.4,96.5c2.7,31,30,53.9,61,51.2l7-0.6c31-2.7,53.9-30,51.2-61
						l-5.6-64.4c19.5-3.4,34.6-10.4,39.9-20.9C1007.9,1417.8,1000.5,1381.3,975.2,1326.2z"/>
					<path class="st9" d="M915.9,1350c-0.5,0-0.9-0.3-1-0.8c-0.2-0.6,0.1-1.2,0.7-1.4l89.1-27.5c0.6-0.2,1.2,0.1,1.4,0.7
						c0.2,0.6-0.1,1.2-0.7,1.4l-89.1,27.5C916.1,1350,916,1350,915.9,1350z"/>
					<path class="st9" d="M959.1,1457c-0.5,0-1-0.4-1.1-1l-2.7-23.5c-0.1-0.6,0.4-1.1,1-1.2c0.6-0.1,1.1,0.4,1.2,1l2.7,23.5
						c0.1,0.6-0.4,1.1-1,1.2C959.2,1457,959.2,1457,959.1,1457z"/>
					<path class="st9" d="M914.2,1386.1c-0.3,0-0.5-0.1-0.7-0.3c-5.8-5.3-9.5-8.8-12.1-11.4c-1.3-1.2-2.4-2.3-3.4-3.2
						c-0.4-0.4-0.5-1.1-0.1-1.5c0.4-0.4,1.1-0.5,1.5-0.1c1,0.9,2.1,2,3.4,3.2c2.6,2.5,6.3,6,12.1,11.3c0.4,0.4,0.5,1.1,0.1,1.5
						C914.8,1385.9,914.5,1386.1,914.2,1386.1z"/>
					<path class="st9" d="M920.1,1238.3c-35.5-29.4-116.9-3.6-145.3,41.7c-38.4,61.2-9.3,146.4,43.2,171.7
						c17.6,8.5,46.6,18.2,75.1,1.9c16.6-9.6,11-34.7,9.5-40.8c-16.4-1.5-29.2-14.5-30.4-30.2c-1.2-15.7,9.8-30,23.6-33.6
						c9.2-2.4,17.1,0.6,20.4,2C939.3,1303.2,945.4,1259.2,920.1,1238.3z"/>
				</g>
				<g>
					<g>
						<path class="st10" d="M635.5,1752.7c-91.6-34.8-361.9-118.9-325.4-232c30.2-93.6,289.9,0,383.1,28.6
							C674,1617.1,654.8,1684.9,635.5,1752.7z"/>
						<g>
							<path class="st10" d="M439.3,1616.7C439.3,1616.7,439.3,1616.7,439.3,1616.7c82.1-157.8,143.4-268.2,160.9-303
								c1.8-3.6,5.1-10.1,7-19.3c6.8-34-17-51.5-26.2-90.6c-10.4-44.3,8.8-75.2-1.5-80.4c-7.2-3.7-17.7,5.9-30.4,31.7c0,0,0,0,0,0
								c7.3-20.7,16-49.2,4.6-53.2c-13.5-3.9-27.6,28.4-35.3,48.3c9.2-24.2,6.9-39.8-0.1-40.4c-10.9-1-22.4,16-33.4,48.4
								c0,0,0,0,0,0c1.3-24.5-2-30.6-8.3-29.7c-11.5,1.7-20,28.5-23.8,53.3c-4.4,28,2,51.2,6.3,65.7c0,0,0,0,0,0
								c-68.9,104.6-87,129.1-140.9,214.7C257.1,1559.7,351.1,1658.4,439.3,1616.7z"/>
							<path class="st10" d="M581,1241.7c23.3-38.6,39.9-47.5,45.9-43.6c10.1,6.5,3.7,47.6-23.3,108.2
								C595.7,1288.8,588.9,1259.1,581,1241.7z"/>
							<g>
								<path class="st9" d="M548.4,1197.2c-0.5,0-1-0.4-1.1-0.9c-1.1-5.5-1.6-11-1.6-16.6c0-8,1-16.1,3.1-23.9
									c0.2-0.6,0.8-0.9,1.3-0.8c0.6,0.2,0.9,0.8,0.8,1.3c-2,7.6-3,15.4-3,23.3c0,5.4,0.6,10.8,1.6,16.2c0.1,0.6-0.3,1.2-0.9,1.3
									C548.5,1197.2,548.5,1197.2,548.4,1197.2z"/>
								<path class="st9" d="M519,1189.2c-0.5,0-1-0.4-1.1-0.9c-1.1-5.5-1.6-11-1.6-16.6c0-8,1-16.1,3.1-23.9
									c0.2-0.6,0.8-0.9,1.3-0.8c0.6,0.2,0.9,0.8,0.8,1.3c-2,7.6-3,15.4-3,23.3c0,5.4,0.6,10.8,1.6,16.2c0.1,0.6-0.3,1.2-0.9,1.3
									C519.2,1189.2,519.1,1189.2,519,1189.2z"/>
								<path class="st9" d="M483.6,1200c-0.5,0-1-0.4-1.1-0.9c-1.1-5.4-1.6-11-1.6-16.6c0-8,1-16.1,3.1-23.9
									c0.2-0.6,0.8-0.9,1.3-0.8c0.6,0.2,0.9,0.8,0.8,1.3c-2,7.6-3,15.4-3,23.3c0,5.4,0.6,10.8,1.6,16.2c0.1,0.6-0.3,1.2-0.9,1.3
									C483.7,1200,483.7,1200,483.6,1200z"/>
							</g>
						</g>
					</g>
					<g>
						<g>
							<path class="st10" d="M1255.8,1603.4c200.6,42.7,358.1,85.9,340.9,150.2c-36.4,136.2-187.7,66.2-322.2,65
								C1269.4,1763.4,1260.5,1670.4,1255.8,1603.4z"/>
						</g>
						<g>
							<path class="st10" d="M1424.9,1730.8c0,0-50.6-136.2-72.4-210.3c-22.8-77.8-45.2-196-28.7-199c9.4-1.7,15.8,13.8,30.2,56.4
								c1.4-2.9,7.1-10.4,16.2-10.5c13.3-0.2,17.2,10.5,17.9,11.3c0.4-1,5.1-11.8,14-13.4c10-1.8,17.6,2.8,22,9.5
								c1.1-2.5,6-11.2,14.6-12.5c8.9-1.3,19.1,3.7,21.6,12.7c4.6,16.5,17.3,65.9,26.4,89.1c17.9,45.8,103.3,199.8,111.7,272.8
								C1536.3,1722.8,1424.9,1730.8,1424.9,1730.8z"/>
							<g>
								<path class="st9" d="M1442,1398.6c-0.5,0-1-0.4-1.1-0.9c-0.1-0.6,0.3-1.1,0.9-1.2l14.3-2.1c0.6-0.1,1.1,0.3,1.2,0.9
									c0.1,0.6-0.3,1.1-0.9,1.2l-14.3,2.1C1442.1,1398.6,1442,1398.6,1442,1398.6z"/>
								<path class="st9" d="M1405.6,1404c-0.5,0-1-0.4-1.1-1c-0.1-0.6,0.4-1.1,1-1.2l16.3-1.8c0.6-0.1,1.1,0.4,1.2,1
									c0.1,0.6-0.4,1.1-1,1.2l-16.3,1.8C1405.6,1404,1405.6,1404,1405.6,1404z"/>
								<path class="st9" d="M1370.2,1407.8c-0.5,0-1-0.4-1.1-0.9c-0.1-0.6,0.3-1.1,0.9-1.2c2.7-0.4,5.1-0.7,7.5-1.1
									c2.4-0.3,4.8-0.7,7.5-1.1c0.6-0.1,1.1,0.3,1.2,0.9c0.1,0.6-0.3,1.1-0.9,1.2c-2.7,0.4-5.1,0.7-7.5,1.1
									c-2.4,0.3-4.8,0.7-7.5,1.1C1370.3,1407.8,1370.2,1407.8,1370.2,1407.8z"/>
								<path class="st9" d="M1341.3,1414.5c-0.5,0-0.9-0.3-1.1-0.9c-0.1-0.6,0.2-1.2,0.8-1.3l14-3.1c0.6-0.1,1.2,0.2,1.3,0.8
									c0.1,0.6-0.2,1.2-0.8,1.3l-14,3.1C1341.5,1414.5,1341.4,1414.5,1341.3,1414.5z"/>
							</g>
						</g>
					</g>
					<path class="st11" d="M639.4,1808.6l-132.1-48.5l52.9-256c0,0,412.5-26.8,737.7,99.7l-6.8,248.7l-106.9,8.9l71.9,319.4
						c-261,33.3-473,29.4-651.1,0L639.4,1808.6z"/>
					<path class="st9" d="M648.9,1797.7c-0.1,0-0.1,0-0.2,0c-0.6-0.1-1-0.6-0.9-1.2l13.1-84.2c0.1-0.6,0.6-1,1.2-0.9
						c0.6,0.1,1,0.6,0.9,1.2l-13.1,84.2C649.9,1797.3,649.5,1797.7,648.9,1797.7z"/>
				</g>
			</g>
		</g>
	</g>
</g>
</svg>
